<?xml version="1.0" encoding="UTF-8" standalone="yes"?><svg xmlns="http://www.w3.org/2000/svg" xmlns:xlink="http://www.w3.org/1999/xlink" height="2350pt" style="width:1474px;height:2350px;" version="1.1" viewBox="0 0 1474 2350" width="1474pt"><defs><filter height="300%" id="f1" width="300%" x="-1" y="-1"><feGaussianBlur result="blurOut" stdDeviation="2.0"/><feColorMatrix in="blurOut" result="blurOut2" type="matrix" values="0 0 0 0 0 0 0 0 0 0 0 0 0 0 0 0 0 0 .4 0"/><feOffset dx="4.0" dy="4.0" in="blurOut2" result="blurOut3"/><feBlend in="SourceGraphic" in2="blurOut3" mode="normal"/></filter></defs><g><text fill="#000000" font-family="sans-serif" font-size="18" lengthAdjust="spacingAndGlyphs" textLength="663" x="411" y="16.708">DevOps_Automation.pu (2015-03-17) by Mark Lavi = http://mlavi.github.io</text><rect fill="#FEFECE" filter="url(#f1)" height="638" rx="12.5" ry="12.5" style="stroke: #A80036; stroke-width: 1.5;" width="595" x="22" y="44.9531"/><rect fill="#FFFFFF" height="530.8594" rx="12.5" ry="12.5" style="stroke: #FFFFFF; stroke-width: 1.0;" width="589" x="25" y="149.0938"/><line style="stroke: #A80036; stroke-width: 1.5;" x1="22" x2="617" y1="146.0938" y2="146.0938"/><line style="stroke: #A80036; stroke-width: 1.5;" x1="22" x2="617" y1="71.25" y2="71.25"/><text fill="#000000" font-family="sans-serif" font-size="14" lengthAdjust="spacingAndGlyphs" textLength="93" x="144.5" y="61.9482">Development</text><text fill="#000000" font-family="sans-serif" font-size="12" lengthAdjust="spacingAndGlyphs" textLength="137" x="27" y="84.8887">virtual environment(s)</text><text fill="#000000" font-family="sans-serif" font-size="12" lengthAdjust="spacingAndGlyphs" textLength="125" x="27" y="98.8574">language + runtime</text><text fill="#000000" font-family="sans-serif" font-size="12" lengthAdjust="spacingAndGlyphs" textLength="140" x="27" y="112.8262">frameworks + libraries</text><text fill="#000000" font-family="sans-serif" font-size="12" lengthAdjust="spacingAndGlyphs" textLength="349" x="27" y="126.7949">code tools: editor, debugger, testRunner/Reporter, etc.</text><text fill="#000000" font-family="sans-serif" font-size="12" lengthAdjust="spacingAndGlyphs" textLength="237" x="27" y="140.7637">localBuildAutomationSystemContainer</text><rect fill="#FEFECE" filter="url(#f1)" height="337" rx="12.5" ry="12.5" style="stroke: #A80036; stroke-width: 1.5;" width="588" x="505" y="789.9531"/><rect fill="#FFFFFF" height="257.7969" rx="12.5" ry="12.5" style="stroke: #FFFFFF; stroke-width: 1.0;" width="582" x="508" y="866.1563"/><line style="stroke: #A80036; stroke-width: 1.5;" x1="505" x2="1093" y1="863.1563" y2="863.1563"/><line style="stroke: #A80036; stroke-width: 1.5;" x1="505" x2="1093" y1="816.25" y2="816.25"/><text fill="#000000" font-family="sans-serif" font-size="14" lengthAdjust="spacingAndGlyphs" textLength="164" x="716.5" y="806.9482">BuildAutomationSystem</text><text fill="#000000" font-family="sans-serif" font-size="12" lengthAdjust="spacingAndGlyphs" textLength="65" x="510" y="829.8887">perBranch</text><text fill="#000000" font-family="sans-serif" font-size="12" lengthAdjust="spacingAndGlyphs" textLength="53" x="510" y="843.8574">perHash</text><text fill="#000000" font-family="sans-serif" font-size="12" lengthAdjust="spacingAndGlyphs" textLength="44" x="510" y="857.8262">perTag</text><rect fill="#FEFECE" filter="url(#f1)" height="309" rx="12.5" ry="12.5" style="stroke: #A80036; stroke-width: 1.5;" width="359" x="828" y="1528.9531"/><rect fill="#FFFFFF" height="187.8906" rx="12.5" ry="12.5" style="stroke: #FFFFFF; stroke-width: 1.0;" width="353" x="831" y="1647.0625"/><line style="stroke: #A80036; stroke-width: 1.5;" x1="828" x2="1187" y1="1644.0625" y2="1644.0625"/><line style="stroke: #A80036; stroke-width: 1.5;" x1="828" x2="1187" y1="1555.25" y2="1555.25"/><text fill="#000000" font-family="sans-serif" font-size="14" lengthAdjust="spacingAndGlyphs" textLength="99" x="935.5" y="1545.9482">DeploySystem</text><text fill="#000000" font-family="sans-serif" font-size="12" lengthAdjust="spacingAndGlyphs" textLength="72" x="833" y="1568.8887">entireStack</text><text fill="#000000" font-family="sans-serif" font-size="12" lengthAdjust="spacingAndGlyphs" textLength="105" x="833" y="1582.8574">byProfileOnStack</text><text fill="#000000" font-family="sans-serif" font-size="12" lengthAdjust="spacingAndGlyphs" textLength="93" x="833" y="1596.8262">byRoleOnStack</text><text fill="#000000" font-family="sans-serif" font-size="12" lengthAdjust="spacingAndGlyphs" textLength="135" x="833" y="1610.7949">read, updateManifest</text><text fill="#000000" font-family="sans-serif" font-size="12" lengthAdjust="spacingAndGlyphs" textLength="135" x="833" y="1624.7637">bill of materials (BoM)</text><text fill="#000000" font-family="sans-serif" font-size="12" lengthAdjust="spacingAndGlyphs" textLength="143" x="833" y="1638.7324">readConfigurationData</text><rect fill="#FEFECE" filter="url(#f1)" height="347" rx="12.5" ry="12.5" style="stroke: #A80036; stroke-width: 1.5;" width="327" x="1008" y="1887.9531"/><rect fill="#FFFFFF" height="281.7656" rx="12.5" ry="12.5" style="stroke: #FFFFFF; stroke-width: 1.0;" width="321" x="1011" y="1950.1875"/><line style="stroke: #A80036; stroke-width: 1.5;" x1="1008" x2="1335" y1="1947.1875" y2="1947.1875"/><line style="stroke: #A80036; stroke-width: 1.5;" x1="1008" x2="1335" y1="1914.25" y2="1914.25"/><text fill="#000000" font-family="sans-serif" font-size="14" lengthAdjust="spacingAndGlyphs" textLength="38" x="1016" y="1904.9482">Stack</text><text fill="#000000" font-family="sans-serif" font-size="12" lengthAdjust="spacingAndGlyphs" textLength="117" x="1013" y="1927.8887">name/environment</text><text fill="#000000" font-family="sans-serif" font-size="12" lengthAdjust="spacingAndGlyphs" textLength="310" x="1013" y="1941.8574">(e.g. Feature, Team, Release, dev/qa/stage/prod)</text><rect fill="#FEFECE" filter="url(#f1)" height="50.2656" rx="12.5" ry="12.5" style="stroke: #A80036; stroke-width: 1.5;" width="137" x="38.75" y="409.9531"/><line style="stroke: #A80036; stroke-width: 1.5;" x1="38.75" x2="175.75" y1="436.25" y2="436.25"/><text fill="#000000" font-family="sans-serif" font-size="14" lengthAdjust="spacingAndGlyphs" textLength="32" x="91.25" y="427.9482">BDD</text><text fill="#000000" font-family="sans-serif" font-size="12" lengthAdjust="spacingAndGlyphs" textLength="117" x="43.75" y="452.3887">featureDescription</text><rect fill="#FEFECE" filter="url(#f1)" height="64.2344" rx="12.5" ry="12.5" style="stroke: #A80036; stroke-width: 1.5;" width="83" x="65.75" y="204.9531"/><line style="stroke: #A80036; stroke-width: 1.5;" x1="65.75" x2="148.75" y1="231.25" y2="231.25"/><text fill="#000000" font-family="sans-serif" font-size="14" lengthAdjust="spacingAndGlyphs" textLength="58" x="78.25" y="222.9482">UnitTest</text><text fill="#000000" font-family="sans-serif" font-size="12" lengthAdjust="spacingAndGlyphs" textLength="63" x="70.75" y="247.3887">testCases</text><text fill="#000000" font-family="sans-serif" font-size="12" lengthAdjust="spacingAndGlyphs" textLength="55" x="70.75" y="261.3574">testData</text><rect fill="#FEFECE" filter="url(#f1)" height="162.0156" rx="12.5" ry="12.5" style="stroke: #A80036; stroke-width: 1.5;" width="137" x="273.75" y="155.9531"/><line style="stroke: #A80036; stroke-width: 1.5;" x1="273.75" x2="410.75" y1="182.25" y2="182.25"/><text fill="#000000" font-family="sans-serif" font-size="14" lengthAdjust="spacingAndGlyphs" textLength="37" x="323.75" y="173.9482">Code</text><text fill="#000000" font-family="sans-serif" font-size="12" lengthAdjust="spacingAndGlyphs" textLength="117" x="278.75" y="198.3887">featureDescription</text><text fill="#000000" font-family="sans-serif" font-size="12" lengthAdjust="spacingAndGlyphs" textLength="63" x="278.75" y="212.3574">testCases</text><text fill="#000000" font-family="sans-serif" font-size="12" lengthAdjust="spacingAndGlyphs" textLength="55" x="278.75" y="226.3262">testData</text><text fill="#000000" font-family="sans-serif" font-size="12" lengthAdjust="spacingAndGlyphs" textLength="76" x="278.75" y="240.2949">functionality</text><text fill="#000000" font-family="sans-serif" font-size="12" lengthAdjust="spacingAndGlyphs" textLength="113" x="278.75" y="254.2637">configurationData</text><text fill="#000000" font-family="sans-serif" font-size="12" lengthAdjust="spacingAndGlyphs" textLength="77" x="278.75" y="268.2324">deployability</text><text fill="#000000" font-family="sans-serif" font-size="12" lengthAdjust="spacingAndGlyphs" textLength="55" x="278.75" y="282.2012">monitors</text><text fill="#000000" font-family="sans-serif" font-size="12" lengthAdjust="spacingAndGlyphs" textLength="46" x="278.75" y="296.1699">metrics</text><text fill="#000000" font-family="sans-serif" font-size="12" lengthAdjust="spacingAndGlyphs" textLength="26" x="278.75" y="310.1387">logs</text><rect fill="#FEFECE" filter="url(#f1)" height="78.2031" rx="12.5" ry="12.5" style="stroke: #A80036; stroke-width: 1.5;" width="263" x="210.75" y="395.9531"/><line style="stroke: #A80036; stroke-width: 1.5;" x1="210.75" x2="473.75" y1="422.25" y2="422.25"/><text fill="#000000" font-family="sans-serif" font-size="14" lengthAdjust="spacingAndGlyphs" textLength="69" x="307.75" y="413.9482">LocalBuild</text><text fill="#000000" font-family="sans-serif" font-size="12" lengthAdjust="spacingAndGlyphs" textLength="74" x="215.75" y="438.3887">localArtifact</text><text fill="#000000" font-family="sans-serif" font-size="12" lengthAdjust="spacingAndGlyphs" textLength="82" x="215.75" y="452.3574">localTestJobs</text><text fill="#000000" font-family="sans-serif" font-size="12" lengthAdjust="spacingAndGlyphs" textLength="243" x="215.75" y="466.3262">localBuildAutomationSystemContainer?</text><rect fill="#FEFECE" filter="url(#f1)" height="50" rx="12.5" ry="12.5" style="stroke: #A80036; stroke-width: 1.5;" width="92" x="509" y="409.9531"/><line style="stroke: #A80036; stroke-width: 1.5;" x1="509" x2="601" y1="436.25" y2="436.25"/><text fill="#000000" font-family="sans-serif" font-size="14" lengthAdjust="spacingAndGlyphs" textLength="72" x="519" y="427.9482">LocalRepo</text><rect fill="#FEFECE" filter="url(#f1)" height="64.2344" rx="12.5" ry="12.5" style="stroke: #A80036; stroke-width: 1.5;" width="154" x="135" y="602.9531"/><line style="stroke: #A80036; stroke-width: 1.5;" x1="135" x2="289" y1="629.25" y2="629.25"/><text fill="#000000" font-family="sans-serif" font-size="14" lengthAdjust="spacingAndGlyphs" textLength="73" x="175.5" y="620.9482">LocalStack</text><text fill="#000000" font-family="sans-serif" font-size="12" lengthAdjust="spacingAndGlyphs" textLength="107" x="140" y="645.3887">LocalDeployTest?</text><text fill="#000000" font-family="sans-serif" font-size="12" lengthAdjust="spacingAndGlyphs" textLength="134" x="140" y="659.3574">LocalIntegrationTest?</text><ellipse cx="611" cy="905.9531" fill="#000000" filter="url(#f1)" rx="10" ry="10" style="stroke: none; stroke-width: 1.0;"/><rect fill="#FEFECE" filter="url(#f1)" height="50.2656" rx="12.5" ry="12.5" style="stroke: #A80036; stroke-width: 1.5;" width="94" x="529" y="1038.9531"/><line style="stroke: #A80036; stroke-width: 1.5;" x1="529" x2="623" y1="1065.25" y2="1065.25"/><text fill="#000000" font-family="sans-serif" font-size="14" lengthAdjust="spacingAndGlyphs" textLength="63" x="544.5" y="1056.9482">BuildJobs</text><text fill="#000000" font-family="sans-serif" font-size="12" lengthAdjust="spacingAndGlyphs" textLength="74" x="534" y="1081.3887">localArtifact</text><rect fill="#FEFECE" filter="url(#f1)" height="64.2344" rx="12.5" ry="12.5" style="stroke: #A80036; stroke-width: 1.5;" width="140" x="921" y="1031.9531"/><line style="stroke: #A80036; stroke-width: 1.5;" x1="921" x2="1061" y1="1058.25" y2="1058.25"/><text fill="#000000" font-family="sans-serif" font-size="14" lengthAdjust="spacingAndGlyphs" textLength="77" x="952.5" y="1049.9482">DeployJobs</text><text fill="#000000" font-family="sans-serif" font-size="12" lengthAdjust="spacingAndGlyphs" textLength="120" x="926" y="1074.3887">artifact or manifest</text><text fill="#000000" font-family="sans-serif" font-size="12" lengthAdjust="spacingAndGlyphs" textLength="34" x="926" y="1088.3574">stack</text><rect fill="#FEFECE" filter="url(#f1)" height="50.2656" rx="12.5" ry="12.5" style="stroke: #A80036; stroke-width: 1.5;" width="124" x="727.5" y="880.9531"/><line style="stroke: #A80036; stroke-width: 1.5;" x1="727.5" x2="851.5" y1="907.25" y2="907.25"/><text fill="#000000" font-family="sans-serif" font-size="14" lengthAdjust="spacingAndGlyphs" textLength="104" x="737.5" y="898.9482">BuildScheduler</text><text fill="#000000" font-family="sans-serif" font-size="12" lengthAdjust="spacingAndGlyphs" textLength="70" x="732.5" y="923.3887">e.g. Nightly</text><rect fill="#FEFECE" filter="url(#f1)" height="78.2031" rx="12.5" ry="12.5" style="stroke: #A80036; stroke-width: 1.5;" width="193" x="692.75" y="1024.9531"/><line style="stroke: #A80036; stroke-width: 1.5;" x1="692.75" x2="885.75" y1="1051.25" y2="1051.25"/><text fill="#000000" font-family="sans-serif" font-size="14" lengthAdjust="spacingAndGlyphs" textLength="60" x="759.25" y="1042.9482">TestJobs</text><text fill="#000000" font-family="sans-serif" font-size="12" lengthAdjust="spacingAndGlyphs" textLength="84" x="697.75" y="1067.3887">PeriodicTests</text><text fill="#000000" font-family="sans-serif" font-size="12" lengthAdjust="spacingAndGlyphs" textLength="173" x="697.75" y="1081.3574">BasicCodeAcceptanceTests</text><text fill="#000000" font-family="sans-serif" font-size="12" lengthAdjust="spacingAndGlyphs" textLength="135" x="697.75" y="1095.3262">read, updateManifest</text><rect fill="#FEFECE" filter="url(#f1)" height="151.2031" rx="12.5" ry="12.5" style="stroke: #A80036; stroke-width: 1.5;" width="292" x="871" y="1662.4531"/><rect fill="#FFFFFF" height="72" rx="12.5" ry="12.5" style="stroke: #FFFFFF; stroke-width: 1.0;" width="286" x="874" y="1738.6563"/><line style="stroke: #A80036; stroke-width: 1.5;" x1="871" x2="1163" y1="1735.6563" y2="1735.6563"/><line style="stroke: #A80036; stroke-width: 1.5;" x1="871" x2="1163" y1="1688.75" y2="1688.75"/><text fill="#000000" font-family="sans-serif" font-size="14" lengthAdjust="spacingAndGlyphs" textLength="47" x="993.5" y="1680.4482">Canary</text><text fill="#000000" font-family="sans-serif" font-size="12" lengthAdjust="spacingAndGlyphs" textLength="138" x="876" y="1699.8887">% existing role@stack</text><text fill="#000000" font-family="sans-serif" font-size="12" lengthAdjust="spacingAndGlyphs" textLength="86" x="876" y="1713.8574">applyManifest</text><text fill="#000000" font-family="sans-serif" font-size="12" lengthAdjust="spacingAndGlyphs" textLength="47" x="876" y="1727.8262">Rolling?</text><rect fill="#FEFECE" filter="url(#f1)" height="50.2656" rx="12.5" ry="12.5" style="stroke: #A80036; stroke-width: 1.5;" width="134" x="882" y="1748.6563"/><line style="stroke: #A80036; stroke-width: 1.5;" x1="882" x2="1016" y1="1774.9531" y2="1774.9531"/><text fill="#000000" font-family="sans-serif" font-size="14" lengthAdjust="spacingAndGlyphs" textLength="62" x="918" y="1766.6514">Provision</text><text fill="#000000" font-family="sans-serif" font-size="12" lengthAdjust="spacingAndGlyphs" textLength="114" x="887" y="1791.0918">profile/role@stack</text><rect fill="#FEFECE" filter="url(#f1)" height="50.2656" rx="12.5" ry="12.5" style="stroke: #A80036; stroke-width: 1.5;" width="91" x="1034.75" y="1748.6563"/><line style="stroke: #A80036; stroke-width: 1.5;" x1="1034.75" x2="1125.75" y1="1774.9531" y2="1774.9531"/><text fill="#000000" font-family="sans-serif" font-size="14" lengthAdjust="spacingAndGlyphs" textLength="59" x="1050.75" y="1766.6514">Upgrade</text><text fill="#000000" font-family="sans-serif" font-size="12" lengthAdjust="spacingAndGlyphs" textLength="71" x="1039.75" y="1791.0918">role@stack</text><ellipse cx="1300" cy="2010.9531" fill="#000000" filter="url(#f1)" rx="10" ry="10" style="stroke: none; stroke-width: 1.0;"/><rect fill="#FEFECE" filter="url(#f1)" height="92.1719" rx="12.5" ry="12.5" style="stroke: #A80036; stroke-width: 1.5;" width="71" x="1236.75" y="2118.9531"/><line style="stroke: #A80036; stroke-width: 1.5;" x1="1236.75" x2="1307.75" y1="2145.25" y2="2145.25"/><text fill="#000000" font-family="sans-serif" font-size="14" lengthAdjust="spacingAndGlyphs" textLength="36" x="1254.25" y="2136.9482">node</text><text fill="#000000" font-family="sans-serif" font-size="12" lengthAdjust="spacingAndGlyphs" textLength="51" x="1241.75" y="2161.3887">provider</text><text fill="#000000" font-family="sans-serif" font-size="12" lengthAdjust="spacingAndGlyphs" textLength="39" x="1241.75" y="2175.3574">profile</text><text fill="#000000" font-family="sans-serif" font-size="12" lengthAdjust="spacingAndGlyphs" textLength="24" x="1241.75" y="2189.3262">role</text><text fill="#000000" font-family="sans-serif" font-size="12" lengthAdjust="spacingAndGlyphs" textLength="48" x="1241.75" y="2203.2949">monitor</text><rect fill="#FEFECE" filter="url(#f1)" height="92.1719" rx="12.5" ry="12.5" style="stroke: #A80036; stroke-width: 1.5;" width="168" x="1052.5" y="1964.9531"/><line style="stroke: #A80036; stroke-width: 1.5;" x1="1052.5" x2="1220.5" y1="1991.25" y2="1991.25"/><text fill="#000000" font-family="sans-serif" font-size="14" lengthAdjust="spacingAndGlyphs" textLength="148" x="1062.5" y="1982.9482">ProviderInfrastructure</text><text fill="#000000" font-family="sans-serif" font-size="12" lengthAdjust="spacingAndGlyphs" textLength="86" x="1057.5" y="2007.3887">load balancer</text><text fill="#000000" font-family="sans-serif" font-size="12" lengthAdjust="spacingAndGlyphs" textLength="26" x="1057.5" y="2021.3574">DNS</text><text fill="#000000" font-family="sans-serif" font-size="12" lengthAdjust="spacingAndGlyphs" textLength="48" x="1057.5" y="2035.3262">monitor</text><text fill="#000000" font-family="sans-serif" font-size="12" lengthAdjust="spacingAndGlyphs" textLength="141" x="1057.5" y="2049.2949">scheduler, auto-scaler</text><rect fill="#FEFECE" filter="url(#f1)" height="165.1719" rx="12.5" ry="12.5" style="stroke: #A80036; stroke-width: 1.5;" width="542" x="925" y="552.4531"/><rect fill="#FFFFFF" height="72" rx="12.5" ry="12.5" style="stroke: #FFFFFF; stroke-width: 1.0;" width="536" x="928" y="642.625"/><line style="stroke: #A80036; stroke-width: 1.5;" x1="925" x2="1467" y1="639.625" y2="639.625"/><line style="stroke: #A80036; stroke-width: 1.5;" x1="925" x2="1467" y1="578.75" y2="578.75"/><text fill="#000000" font-family="sans-serif" font-size="14" lengthAdjust="spacingAndGlyphs" textLength="111" x="1140.5" y="570.4482">CodeRepository</text><text fill="#000000" font-family="sans-serif" font-size="12" lengthAdjust="spacingAndGlyphs" textLength="65" x="930" y="589.8887">repoName</text><text fill="#000000" font-family="sans-serif" font-size="12" lengthAdjust="spacingAndGlyphs" textLength="44" x="930" y="603.8574">branch</text><text fill="#000000" font-family="sans-serif" font-size="12" lengthAdjust="spacingAndGlyphs" textLength="31" x="930" y="617.8262">hash</text><text fill="#000000" font-family="sans-serif" font-size="12" lengthAdjust="spacingAndGlyphs" textLength="21" x="930" y="631.7949">tag</text><rect fill="#FEFECE" filter="url(#f1)" height="50.2656" rx="12.5" ry="12.5" style="stroke: #A80036; stroke-width: 1.5;" width="150" x="936" y="652.625"/><line style="stroke: #A80036; stroke-width: 1.5;" x1="936" x2="1086" y1="678.9219" y2="678.9219"/><text fill="#000000" font-family="sans-serif" font-size="14" lengthAdjust="spacingAndGlyphs" textLength="112" x="955" y="670.6201">preCommitHook</text><text fill="#000000" font-family="sans-serif" font-size="12" lengthAdjust="spacingAndGlyphs" textLength="130" x="941" y="695.0605">invoke Build+TestJob</text><rect fill="#FEFECE" filter="url(#f1)" height="50.2656" rx="12.5" ry="12.5" style="stroke: #A80036; stroke-width: 1.5;" width="150" x="1104" y="652.625"/><line style="stroke: #A80036; stroke-width: 1.5;" x1="1104" x2="1254" y1="678.9219" y2="678.9219"/><text fill="#000000" font-family="sans-serif" font-size="14" lengthAdjust="spacingAndGlyphs" textLength="120" x="1119" y="670.6201">postCommitHook</text><text fill="#000000" font-family="sans-serif" font-size="12" lengthAdjust="spacingAndGlyphs" textLength="130" x="1109" y="695.0605">invoke Build+TestJob</text><rect fill="#FEFECE" filter="url(#f1)" height="50.2656" rx="12.5" ry="12.5" style="stroke: #A80036; stroke-width: 1.5;" width="157" x="1272.25" y="652.625"/><line style="stroke: #A80036; stroke-width: 1.5;" x1="1272.25" x2="1429.25" y1="678.9219" y2="678.9219"/><text fill="#000000" font-family="sans-serif" font-size="14" lengthAdjust="spacingAndGlyphs" textLength="65" x="1318.25" y="670.6201">webHook</text><text fill="#000000" font-family="sans-serif" font-size="12" lengthAdjust="spacingAndGlyphs" textLength="137" x="1277.25" y="695.0605">invoke Build+TestJobs</text><rect fill="#FEFECE" filter="url(#f1)" height="120.1094" rx="12.5" ry="12.5" style="stroke: #A80036; stroke-width: 1.5;" width="168" x="633.5" y="574.9531"/><line style="stroke: #A80036; stroke-width: 1.5;" x1="633.5" x2="801.5" y1="601.25" y2="601.25"/><text fill="#000000" font-family="sans-serif" font-size="14" lengthAdjust="spacingAndGlyphs" textLength="100" x="667.5" y="592.9482">ReviewSystem</text><text fill="#000000" font-family="sans-serif" font-size="12" lengthAdjust="spacingAndGlyphs" textLength="148" x="638.5" y="617.3887">master or all branches?</text><text fill="#000000" font-family="sans-serif" font-size="12" lengthAdjust="spacingAndGlyphs" textLength="71" x="638.5" y="631.3574">+1 BuildJob</text><text fill="#000000" font-family="sans-serif" font-size="12" lengthAdjust="spacingAndGlyphs" textLength="68" x="638.5" y="645.3262">+1 TestJob</text><text fill="#000000" font-family="sans-serif" font-size="12" lengthAdjust="spacingAndGlyphs" textLength="83" x="638.5" y="659.2949">+1 DeployJob</text><text fill="#000000" font-family="sans-serif" font-size="12" lengthAdjust="spacingAndGlyphs" textLength="108" x="638.5" y="673.2637">+1 HumanReview</text><text fill="#000000" font-family="sans-serif" font-size="12" lengthAdjust="spacingAndGlyphs" textLength="125" x="638.5" y="687.2324">+1 PeriodicTestJobs</text><rect fill="#FEFECE" filter="url(#f1)" height="134.0781" rx="12.5" ry="12.5" style="stroke: #A80036; stroke-width: 1.5;" width="266" x="798" y="1198.9531"/><line style="stroke: #A80036; stroke-width: 1.5;" x1="798" x2="1064" y1="1225.25" y2="1225.25"/><text fill="#000000" font-family="sans-serif" font-size="14" lengthAdjust="spacingAndGlyphs" textLength="161" x="850.5" y="1216.9482">TestAutomationSystem</text><text fill="#000000" font-family="sans-serif" font-size="12" lengthAdjust="spacingAndGlyphs" textLength="59" x="803" y="1241.3887">Simulator</text><text fill="#000000" font-family="sans-serif" font-size="12" lengthAdjust="spacingAndGlyphs" textLength="246" x="803" y="1255.3574">FeatureIntegrationTesting (stackTests)</text><text fill="#000000" font-family="sans-serif" font-size="12" lengthAdjust="spacingAndGlyphs" textLength="99" x="803" y="1269.3262">FullSuiteTesting</text><text fill="#000000" font-family="sans-serif" font-size="12" lengthAdjust="spacingAndGlyphs" textLength="76" x="803" y="1283.2949">LoadTesting</text><text fill="#000000" font-family="sans-serif" font-size="12" lengthAdjust="spacingAndGlyphs" textLength="116" x="803" y="1297.2637">RegressionTesting</text><text fill="#000000" font-family="sans-serif" font-size="12" lengthAdjust="spacingAndGlyphs" textLength="77" x="803" y="1311.2324">SoakTesting</text><text fill="#000000" font-family="sans-serif" font-size="12" lengthAdjust="spacingAndGlyphs" textLength="135" x="803" y="1325.2012">read, updateManifest</text><rect fill="#FEFECE" filter="url(#f1)" height="64.2344" rx="12.5" ry="12.5" style="stroke: #A80036; stroke-width: 1.5;" width="141" x="498.75" y="1233.9531"/><line style="stroke: #A80036; stroke-width: 1.5;" x1="498.75" x2="639.75" y1="1260.25" y2="1260.25"/><text fill="#000000" font-family="sans-serif" font-size="14" lengthAdjust="spacingAndGlyphs" textLength="121" x="508.75" y="1251.9482">ArtifactRepository</text><text fill="#000000" font-family="sans-serif" font-size="12" lengthAdjust="spacingAndGlyphs" textLength="63" x="503.75" y="1276.3887">candidate</text><text fill="#000000" font-family="sans-serif" font-size="12" lengthAdjust="spacingAndGlyphs" textLength="40" x="503.75" y="1290.3574">official</text><rect fill="#FEFECE" filter="url(#f1)" height="78.2031" rx="12.5" ry="12.5" style="stroke: #A80036; stroke-width: 1.5;" width="163" x="988.75" y="1394.9531"/><line style="stroke: #A80036; stroke-width: 1.5;" x1="988.75" x2="1151.75" y1="1421.25" y2="1421.25"/><text fill="#000000" font-family="sans-serif" font-size="14" lengthAdjust="spacingAndGlyphs" textLength="143" x="998.75" y="1412.9482">ConfigurationSystem</text><text fill="#000000" font-family="sans-serif" font-size="12" lengthAdjust="spacingAndGlyphs" textLength="54" x="993.75" y="1437.3887">manifest</text><text fill="#000000" font-family="sans-serif" font-size="12" lengthAdjust="spacingAndGlyphs" textLength="77" x="993.75" y="1451.3574">deployability</text><text fill="#000000" font-family="sans-serif" font-size="12" lengthAdjust="spacingAndGlyphs" textLength="113" x="993.75" y="1465.3262">configurationData</text><rect fill="#FEFECE" filter="url(#f1)" height="50.2656" rx="12.5" ry="12.5" style="stroke: #A80036; stroke-width: 1.5;" width="80" x="1096" y="2290.9531"/><line style="stroke: #A80036; stroke-width: 1.5;" x1="1096" x2="1176" y1="2317.25" y2="2317.25"/><text fill="#000000" font-family="sans-serif" font-size="14" lengthAdjust="spacingAndGlyphs" textLength="60" x="1106" y="2308.9482">Monitors</text><text fill="#000000" font-family="sans-serif" font-size="12" lengthAdjust="spacingAndGlyphs" textLength="22" x="1101" y="2333.3887">SLA</text><rect fill="#FEFECE" filter="url(#f1)" height="50" rx="12.5" ry="12.5" style="stroke: #A80036; stroke-width: 1.5;" width="53" x="1245.75" y="2290.9531"/><line style="stroke: #A80036; stroke-width: 1.5;" x1="1245.75" x2="1298.75" y1="2317.25" y2="2317.25"/><text fill="#000000" font-family="sans-serif" font-size="14" lengthAdjust="spacingAndGlyphs" textLength="33" x="1255.75" y="2308.9482">Logs</text><rect fill="#FEFECE" filter="url(#f1)" height="50.2656" rx="12.5" ry="12.5" style="stroke: #A80036; stroke-width: 1.5;" width="70" x="1368" y="2290.9531"/><line style="stroke: #A80036; stroke-width: 1.5;" x1="1368" x2="1438" y1="2317.25" y2="2317.25"/><text fill="#000000" font-family="sans-serif" font-size="14" lengthAdjust="spacingAndGlyphs" textLength="50" x="1378" y="2308.9482">Metrics</text><text fill="#000000" font-family="sans-serif" font-size="12" lengthAdjust="spacingAndGlyphs" textLength="22" x="1373" y="2333.3887">SLA</text><rect fill="#FEFECE" filter="url(#f1)" height="120.1094" rx="12.5" ry="12.5" style="stroke: #A80036; stroke-width: 1.5;" width="186" x="1170.5" y="1205.9531"/><line style="stroke: #A80036; stroke-width: 1.5;" x1="1170.5" x2="1356.5" y1="1232.25" y2="1232.25"/><text fill="#000000" font-family="sans-serif" font-size="14" lengthAdjust="spacingAndGlyphs" textLength="145" x="1191" y="1223.9482">WorkPlanningSystem</text><text fill="#000000" font-family="sans-serif" font-size="12" lengthAdjust="spacingAndGlyphs" textLength="95" x="1175.5" y="1248.3887">Stories + Epics</text><text fill="#000000" font-family="sans-serif" font-size="12" lengthAdjust="spacingAndGlyphs" textLength="94" x="1175.5" y="1262.3574">Issues + Tasks</text><text fill="#000000" font-family="sans-serif" font-size="12" lengthAdjust="spacingAndGlyphs" textLength="166" x="1175.5" y="1276.3262">Sprints + ReleasePlanning</text><text fill="#000000" font-family="sans-serif" font-size="12" lengthAdjust="spacingAndGlyphs" textLength="112" x="1175.5" y="1290.2949">Reports + Metrics</text><text fill="#000000" font-family="sans-serif" font-size="12" lengthAdjust="spacingAndGlyphs" textLength="96" x="1175.5" y="1304.2637">Documentation</text><text fill="#000000" font-family="sans-serif" font-size="12" lengthAdjust="spacingAndGlyphs" textLength="82" x="1175.5" y="1318.2324">readManifest</text><rect fill="#FEFECE" filter="url(#f1)" height="50.2656" rx="12.5" ry="12.5" style="stroke: #A80036; stroke-width: 1.5;" width="171" x="633.75" y="211.9531"/><line style="stroke: #A80036; stroke-width: 1.5;" x1="633.75" x2="804.75" y1="238.25" y2="238.25"/><text fill="#000000" font-family="sans-serif" font-size="14" lengthAdjust="spacingAndGlyphs" textLength="151" x="643.75" y="229.9482">AuthenticationSystem</text><text fill="#000000" font-family="sans-serif" font-size="12" lengthAdjust="spacingAndGlyphs" textLength="103" x="638.75" y="254.3887">LDAP, SAML, etc.</text><path d="M107,409.8431 C107,375.8831 107,313.7231 107,274.1931 " fill="none" style="stroke: #A80036; stroke-width: 1.0;"/><polygon fill="#A80036" points="107,269.0131,103,278.0131,107,274.0131,111,278.0131,107,269.0131" style="stroke: #A80036; stroke-width: 1.0;"/><path d="M273.33,236.9531 C234.917,236.9531 188.035,236.9531 153.847,236.9531 " fill="none" style="stroke: #A80036; stroke-width: 1.0;"/><polygon fill="#A80036" points="148.472,236.9531,157.472,240.9531,153.472,236.9531,157.472,232.9531,148.472,236.9531" style="stroke: #A80036; stroke-width: 1.0;"/><text fill="#000000" font-family="sans-serif" font-size="13" lengthAdjust="spacingAndGlyphs" textLength="50" x="185.25" y="229.02">OnSave</text><path d="M273.713,294.9031 C229.697,331.6231 174.437,377.7031 139.911,406.5031 " fill="none" style="stroke: #A80036; stroke-width: 1.0;"/><polygon fill="#A80036" points="135.806,409.9231,145.2805,407.2337,139.6469,406.7219,140.1586,401.0883,135.806,409.9231" style="stroke: #A80036; stroke-width: 1.0;"/><path d="M342,317.9531 C342,342.8431 342,369.3431 342,390.7131 " fill="none" style="stroke: #A80036; stroke-width: 1.0;"/><polygon fill="#A80036" points="342,395.7531,346,386.7531,342,390.7531,338,386.7531,342,395.7531" style="stroke: #A80036; stroke-width: 1.0;"/><path d="M410.273,300.7731 C448.936,336.3531 495.349,379.0631 525.003,406.3531 " fill="none" style="stroke: #A80036; stroke-width: 1.0;"/><polygon fill="#A80036" points="528.894,409.9331,524.972,400.8989,525.2118,406.5506,519.56,406.7904,528.894,409.9331" style="stroke: #A80036; stroke-width: 1.0;"/><text fill="#000000" font-family="sans-serif" font-size="13" lengthAdjust="spacingAndGlyphs" textLength="49" x="482" y="361.02">commit</text><path d="M316.935,474.1331 C293.421,509.9431 258.524,563.0931 235.524,598.1231 " fill="none" style="stroke: #A80036; stroke-width: 1.0;"/><polygon fill="#A80036" points="232.5,602.7331,240.7827,597.4042,235.2438,598.5532,234.0948,593.0142,232.5,602.7331" style="stroke: #A80036; stroke-width: 1.0;"/><path d="M342,474.2831 C342,514.1631 342,578.4331 342,633.9531 C342,633.9531 342,633.9531 342,1064.9531 C342,1147.6631 427.891,1204.2931 494.006,1235.6331 " fill="none" style="stroke: #A80036; stroke-width: 1.0;"/><polygon fill="#A80036" points="498.73,1237.8431,492.2768,1230.4029,494.2022,1235.7221,488.8831,1237.6474,498.73,1237.8431" style="stroke: #A80036; stroke-width: 1.0;"/><text fill="#000000" font-family="sans-serif" font-size="13" lengthAdjust="spacingAndGlyphs" textLength="67" x="377.5" y="895.02">Desk Build</text><text fill="#000000" font-family="sans-serif" font-size="13" lengthAdjust="spacingAndGlyphs" textLength="136" x="343" y="910.1528">(manual workaround)</text><text fill="#000000" font-family="sans-serif" font-size="13" lengthAdjust="spacingAndGlyphs" textLength="65" x="378.5" y="925.2856">Candidate</text><path d="M574.864,460.2331 C597.201,487.5331 634.365,532.9531 665.09,570.5031 " fill="none" style="stroke: #A80036; stroke-width: 1.0;"/><polygon fill="#A80036" points="668.422,574.5831,665.8112,565.0866,665.2528,570.7158,659.6236,570.1574,668.422,574.5831" style="stroke: #A80036; stroke-width: 1.0;"/><path d="M601.099,450.1931 C669.618,471.3531 803.545,512.7231 927.002,550.8631 " fill="none" style="stroke: #A80036; stroke-width: 1.0;"/><polygon fill="#A80036" points="932.13,552.4431,924.7083,545.9687,927.352,550.9698,922.3509,553.6135,932.13,552.4431" style="stroke: #A80036; stroke-width: 1.0;"/><text fill="#000000" font-family="sans-serif" font-size="13" lengthAdjust="spacingAndGlyphs" textLength="31" x="820" y="517.02">push</text><path d="M1204.69,717.5431 C1218.17,844.1331 1243.86,1085.2731 1256.14,1200.5131 " fill="none" style="stroke: #A80036; stroke-width: 1.0;"/><polygon fill="#A80036" points="1256.67,1205.5631,1259.696,1196.1907,1256.1414,1200.5911,1251.7409,1197.0365,1256.67,1205.5631" style="stroke: #A80036; stroke-width: 1.0;"/><path d="M1162.24,717.7531 C1139.01,774.0531 1109.75,844.9831 1094.79,881.2431 " fill="none" style="stroke: #A80036; stroke-width: 1.0;"/><polygon fill="#A80036" points="1092.86,885.9131,1099.9855,879.114,1094.7637,881.2897,1092.588,876.068,1092.86,885.9131" style="stroke: #A80036; stroke-width: 1.0;"/><path d="M800.506,687.3831 C850.659,715.6431 916.811,748.4231 980,765.9531 C1000.841,771.7331 1061.87,758.4931 1077,773.9531 C1080.46,777.4831 1083.38,781.3531 1085.85,785.4931 " fill="none" style="stroke: #A80036; stroke-width: 1.0;"/><polygon fill="#A80036" points="1088.35,790.0731,1087.5631,780.2558,1085.9608,785.6809,1080.5356,784.0785,1088.35,790.0731" style="stroke: #A80036; stroke-width: 1.0;"/><text fill="#000000" font-family="sans-serif" font-size="13" lengthAdjust="spacingAndGlyphs" textLength="153" x="981" y="761.02">(review build) Candidate</text><path d="M800.709,634.9531 C834.924,634.9531 876.632,634.9531 919.975,634.9531 " fill="none" style="stroke: #A80036; stroke-width: 1.0;"/><polygon fill="#A80036" points="924.993,634.9531,915.993,630.9531,919.993,634.9531,915.993,638.9531,924.993,634.9531" style="stroke: #A80036; stroke-width: 1.0;"/><text fill="#000000" font-family="sans-serif" font-size="13" lengthAdjust="spacingAndGlyphs" textLength="86" x="819" y="627.02">+N = passed</text><path d="M1087.14,1126.4731 C1086.65,1192.8631 1084.99,1265.9231 1081,1332.9531 C1079.9,1351.4391 1077.82,1371.7671 1075.77,1389.2401 " fill="none" style="stroke: #A80036; stroke-width: 1.0;"/><polygon fill="#A80036" points="1075.13,1394.5651,1080.1704,1386.1038,1075.7238,1389.6005,1072.2271,1385.1538,1075.13,1394.5651" style="stroke: #A80036; stroke-width: 1.0;"/><path d="M604.334,913.9131 C595.607,923.5631 580.747,941.9731 575,960.9531 C567.809,984.7031 568.79,1013.0131 571.151,1033.7731 " fill="none" style="stroke: #A80036; stroke-width: 1.0;"/><polygon fill="#A80036" points="571.777,1038.8831,574.6679,1029.4681,571.1769,1033.9193,566.7257,1030.4283,571.777,1038.8831" style="stroke: #A80036; stroke-width: 1.0;"/><text fill="#000000" font-family="sans-serif" font-size="13" lengthAdjust="spacingAndGlyphs" textLength="203" x="576" y="974.52">code repo webhook (automatic)</text><text fill="#000000" font-family="sans-serif" font-size="13" lengthAdjust="spacingAndGlyphs" textLength="106" x="624.5" y="989.6528">ad-hoc (manual)</text><path d="M620.461,909.2031 C647.355,915.7431 726.348,935.8531 789,960.9531 C838.237,980.6831 891.724,1007.9731 931.283,1029.3631 " fill="none" style="stroke: #A80036; stroke-width: 1.0;"/><polygon fill="#A80036" points="936.038,1031.9331,930.0308,1024.1284,931.6419,1029.551,926.2194,1031.1621,936.038,1031.9331" style="stroke: #A80036; stroke-width: 1.0;"/><text fill="#000000" font-family="sans-serif" font-size="13" lengthAdjust="spacingAndGlyphs" textLength="117" x="864" y="982.02">promote (manual)</text><path d="M621.082,905.9531 C654.704,905.9531 688.325,905.9531 721.947,905.9531 " fill="none" style="stroke: #A80036; stroke-width: 1.0;"/><polygon fill="#A80036" points="727.343,905.9531,718.343,901.9531,722.343,905.9531,718.343,909.9531,727.343,905.9531" style="stroke: #A80036; stroke-width: 1.0;"/><path d="M789,930.9831 C789,954.5631 789,991.0331 789,1019.6731 " fill="none" style="stroke: #A80036; stroke-width: 1.0;"/><polygon fill="#A80036" points="789,1024.9231,793,1015.9231,789,1019.9231,785,1015.9231,789,1024.9231" style="stroke: #A80036; stroke-width: 1.0;"/><path d="M623.01,1063.9531 C644.52,1063.9531 666.03,1063.9531 687.539,1063.9531 " fill="none" style="stroke: #A80036; stroke-width: 1.0;"/><polygon fill="#A80036" points="692.713,1063.9531,683.713,1059.9531,687.713,1063.9531,683.713,1067.9531,692.713,1063.9531" style="stroke: #A80036; stroke-width: 1.0;"/><path d="M572.451,1088.9831 C570.094,1106.1931 567.217,1129.9431 566,1150.9531 C564.505,1176.7531 565.315,1205.8831 566.467,1228.2331 " fill="none" style="stroke: #A80036; stroke-width: 1.0;"/><polygon fill="#A80036" points="566.75,1233.4831,570.2556,1224.2793,566.4786,1228.4905,562.2673,1224.7135,566.75,1233.4831" style="stroke: #A80036; stroke-width: 1.0;"/><text fill="#000000" font-family="sans-serif" font-size="13" lengthAdjust="spacingAndGlyphs" textLength="65" x="567" y="1164.02">Candidate</text><path d="M733.841,1103.0131 C714.318,1117.3031 692.599,1134.1631 674,1150.9531 C646.811,1175.4931 618.849,1206.1731 598.623,1229.5131 " fill="none" style="stroke: #A80036; stroke-width: 1.0;"/><polygon fill="#A80036" points="595.192,1233.4931,604.1039,1229.3005,598.4619,1229.7106,598.0518,1224.0686,595.192,1233.4931" style="stroke: #A80036; stroke-width: 1.0;"/><text fill="#000000" font-family="sans-serif" font-size="13" lengthAdjust="spacingAndGlyphs" textLength="42" x="675" y="1164.02">Official</text><path d="M816.043,1103.0431 C834.372,1128.8531 859.144,1163.7431 880.999,1194.5331 " fill="none" style="stroke: #A80036; stroke-width: 1.0;"/><polygon fill="#A80036" points="883.924,1198.6531,881.9895,1188.9961,881.0354,1194.5719,875.4596,1193.6178,883.924,1198.6531" style="stroke: #A80036; stroke-width: 1.0;"/><path d="M959.852,1096.2531 C943.539,1111.5731 922.69,1129.5431 902,1142.9531 C851.932,1175.3931 812.207,1148.7331 780,1198.9531 C668.8,1372.3511 789.281,1643.5981 826.051,1717.6981 " fill="none" style="stroke: #A80036; stroke-width: 1.0;"/><polygon fill="#A80036" points="828.349,1722.2901,827.8993,1712.4515,826.1118,1717.8186,820.7448,1716.0311,828.349,1722.2901" style="stroke: #A80036; stroke-width: 1.0;"/><path d="M980.142,1101.1431 C971.995,1128.3031 960.613,1166.2431 950.854,1198.7731 " fill="none" style="stroke: #A80036; stroke-width: 1.0;"/><polygon fill="#A80036" points="981.625,1096.2031,975.219,1103.684,980.1956,1100.9945,982.8852,1105.971,981.625,1096.2031" style="stroke: #A80036; stroke-width: 1.0;"/><path d="M986.336,1333.0331 C1002.665,1352.5391 1020.08,1373.3411 1034.78,1390.8871 " fill="none" style="stroke: #A80036; stroke-width: 1.0;"/><polygon fill="#A80036" points="1038.06,1394.8111,1035.3428,1385.3445,1034.8476,1390.9796,1029.2124,1390.4844,1038.06,1394.8111" style="stroke: #A80036; stroke-width: 1.0;"/><path d="M988.636,1443.1001 C941.978,1452.2781 886.572,1471.7391 855,1512.9531 C852.126,1516.7041 849.482,1520.6021 847.051,1524.6241 " fill="none" style="stroke: #A80036; stroke-width: 1.0;"/><polygon fill="#A80036" points="844.497,1529.0361,852.4671,1523.2502,847.0015,1524.7086,845.5431,1519.243,844.497,1529.0361" style="stroke: #A80036; stroke-width: 1.0;"/><path d="M1176.15,2295.0363 C1196.37,2285.6636 1221.61,2275.6714 1245.5,2270.9531 C1268.17,2266.4759 1274.86,2266.3257 1297.5,2270.9531 C1319.98,2275.5475 1343.6,2285.1236 1362.78,2294.2657 " fill="none" style="stroke: #A80036; stroke-width: 1.0;"/><polygon fill="#A80036" points="1367.55,2296.5773,1361.1823,2289.0638,1363.0467,2294.4046,1357.706,2296.269,1367.55,2296.5773" style="stroke: #A80036; stroke-width: 1.0;"/><path d="M1176.11,2331.5488 C1197.58,2336.4062 1219.06,2335.6536 1240.53,2329.2912 " fill="none" style="stroke: #A80036; stroke-width: 1.0;"/><polygon fill="#A80036" points="1245.41,2327.7513,1235.6214,2326.6635,1240.6446,2329.2649,1238.0432,2334.2881,1245.41,2327.7513" style="stroke: #A80036; stroke-width: 1.0;"/><path d="M1245.41,2304.1549 C1224.02,2296.9742 1202.64,2295.3564 1181.25,2299.3013 " fill="none" style="stroke: #A80036; stroke-width: 1.0;"/><polygon fill="#A80036" points="1176.11,2300.3574,1185.7283,2302.4761,1181.0089,2299.3572,1184.1279,2294.6378,1176.11,2300.3574" style="stroke: #A80036; stroke-width: 1.0;"/><path d="M1298.35,2315.9531 C1319.8,2315.9531 1341.24,2315.9531 1362.69,2315.9531 " fill="none" style="stroke: #A80036; stroke-width: 1.0;"/><polygon fill="#A80036" points="1367.85,2315.9531,1358.85,2311.9531,1362.85,2315.9531,1358.85,2319.9531,1367.85,2315.9531" style="stroke: #A80036; stroke-width: 1.0;"/><path d="M1194.14,1326.1831 C1169.07,1347.7441 1141.28,1371.6471 1118.36,1391.3611 " fill="none" style="stroke: #A80036; stroke-width: 1.0;"/><polygon fill="#A80036" points="1114.43,1394.7391,1123.8633,1391.9085,1118.2226,1391.4809,1118.6502,1385.8403,1114.43,1394.7391" style="stroke: #A80036; stroke-width: 1.0;"/><path d="M1017,1813.7221 C1017,1835.2981 1017,1859.4651 1017,1883.2671 " fill="none" style="stroke: #A80036; stroke-width: 1.0;"/><polygon fill="#A80036" points="1017,1888.3401,1021,1879.3401,1017,1883.3401,1013,1879.3401,1017,1888.3401" style="stroke: #A80036; stroke-width: 1.0;"/><path d="M1298.33,2021.0061 C1295.04,2038.9031 1287.47,2079.9811 1281.29,2113.5311 " fill="none" style="stroke: #A80036; stroke-width: 1.0;"/><polygon fill="#A80036" points="1280.31,2118.8461,1285.8708,2110.7173,1281.2137,2113.9285,1278.0026,2109.2714,1280.31,2118.8461" style="stroke: #A80036; stroke-width: 1.0;"/><path d="M1289.95,2010.9531 C1268.24,2010.9531 1246.53,2010.9531 1224.82,2010.9531 " fill="none" style="stroke: #A80036; stroke-width: 1.0;"/><polygon fill="#A80036" points="1219.6,2010.9531,1228.6,2014.9531,1224.6,2010.9531,1228.6,2006.9531,1219.6,2010.9531" style="stroke: #A80036; stroke-width: 1.0;"/><path d="M1136,2056.9881 C1136,2119.9441 1136,2232.4971 1136,2285.6382 " fill="none" style="stroke: #A80036; stroke-width: 1.0;"/><polygon fill="#A80036" points="1136,2290.8986,1140,2281.8986,1136,2285.8986,1132,2281.8986,1136,2290.8986" style="stroke: #A80036; stroke-width: 1.0;"/><path d="M1176.44,2057.1461 C1194.35,2077.1651 1215.33,2100.6151 1233.06,2120.4351 " fill="none" style="stroke: #A80036; stroke-width: 1.0;"/><polygon fill="#A80036" points="1236.56,2124.3491,1233.5245,2114.9797,1233.2199,2120.6284,1227.5713,2120.3239,1236.56,2124.3491" style="stroke: #A80036; stroke-width: 1.0;"/><path d="M1236.62,2204.7121 C1213.11,2230.4701 1182.78,2263.6971 1161.6,2286.9103 " fill="none" style="stroke: #A80036; stroke-width: 1.0;"/><polygon fill="#A80036" points="1158.01,2290.8351,1167.028,2286.8758,1161.3772,2287.1389,1161.1141,2281.4882,1158.01,2290.8351" style="stroke: #A80036; stroke-width: 1.0;"/><path d="M1272,2211.0621 C1272,2235.2251 1272,2264.2991 1272,2285.5381 " fill="none" style="stroke: #A80036; stroke-width: 1.0;"/><polygon fill="#A80036" points="1272,2290.7612,1276,2281.7612,1272,2285.7612,1268,2281.7612,1272,2290.7612" style="stroke: #A80036; stroke-width: 1.0;"/><path d="M1307.45,2206.2751 C1329.94,2231.8571 1358.47,2264.3039 1378.47,2287.0578 " fill="none" style="stroke: #A80036; stroke-width: 1.0;"/><polygon fill="#A80036" points="1381.86,2290.9063,1378.9239,2281.5053,1378.5595,2287.1504,1372.9144,2286.7861,1381.86,2290.9063" style="stroke: #A80036; stroke-width: 1.0;"/></g></svg>