<?xml version="1.0" encoding="UTF-8" standalone="yes"?><svg xmlns="http://www.w3.org/2000/svg" xmlns:xlink="http://www.w3.org/1999/xlink" height="1807pt" style="width:2044px;height:1807px;" version="1.1" viewBox="0 0 2044 1807" width="2044pt"><defs><filter height="300%" id="f1" width="300%" x="-1" y="-1"><feGaussianBlur result="blurOut" stdDeviation="2.0"/><feColorMatrix in="blurOut" result="blurOut2" type="matrix" values="0 0 0 0 0 0 0 0 0 0 0 0 0 0 0 0 0 0 .4 0"/><feOffset dx="4.0" dy="4.0" in="blurOut2" result="blurOut3"/><feBlend in="SourceGraphic" in2="blurOut3" mode="normal"/></filter></defs><g><text fill="#000000" font-family="sans-serif" font-size="18" lengthAdjust="spacingAndGlyphs" textLength="299" x="877" y="16.708">DevOps Automation (2015-03-11)</text><rect fill="#FEFECE" filter="url(#f1)" height="627" rx="12.5" ry="12.5" style="stroke: #A80036; stroke-width: 1.5;" width="596" x="22" y="44.9531"/><rect fill="#FFFFFF" height="491.9219" rx="12.5" ry="12.5" style="stroke: #FFFFFF; stroke-width: 1.0;" width="590" x="25" y="177.0313"/><line style="stroke: #A80036; stroke-width: 1.5;" x1="22" x2="618" y1="174.0313" y2="174.0313"/><line style="stroke: #A80036; stroke-width: 1.5;" x1="22" x2="618" y1="71.25" y2="71.25"/><text fill="#000000" font-family="sans-serif" font-size="14" lengthAdjust="spacingAndGlyphs" textLength="93" x="259.5" y="61.9482">Development</text><text fill="#000000" font-family="sans-serif" font-size="12" lengthAdjust="spacingAndGlyphs" textLength="59" x="27" y="84.8887">language</text><text fill="#000000" font-family="sans-serif" font-size="12" lengthAdjust="spacingAndGlyphs" textLength="37" x="27" y="98.8574">editor</text><text fill="#000000" font-family="sans-serif" font-size="12" lengthAdjust="spacingAndGlyphs" textLength="66" x="27" y="112.8262">code tools</text><text fill="#000000" font-family="sans-serif" font-size="12" lengthAdjust="spacingAndGlyphs" textLength="120" x="27" y="126.7949">virtual environment</text><text fill="#000000" font-family="sans-serif" font-size="12" lengthAdjust="spacingAndGlyphs" textLength="48" x="27" y="140.7637">runtime</text><text fill="#000000" font-family="sans-serif" font-size="12" lengthAdjust="spacingAndGlyphs" textLength="72" x="27" y="154.7324">frameworks</text><text fill="#000000" font-family="sans-serif" font-size="12" lengthAdjust="spacingAndGlyphs" textLength="50" x="27" y="168.7012">libraries</text><rect fill="#FEFECE" filter="url(#f1)" height="165" rx="12.5" ry="12.5" style="stroke: #A80036; stroke-width: 1.5;" width="545" x="357" y="755.9531"/><rect fill="#FFFFFF" height="85.7969" rx="12.5" ry="12.5" style="stroke: #FFFFFF; stroke-width: 1.0;" width="539" x="360" y="832.1563"/><line style="stroke: #A80036; stroke-width: 1.5;" x1="357" x2="902" y1="829.1563" y2="829.1563"/><line style="stroke: #A80036; stroke-width: 1.5;" x1="357" x2="902" y1="782.25" y2="782.25"/><text fill="#000000" font-family="sans-serif" font-size="14" lengthAdjust="spacingAndGlyphs" textLength="111" x="573.5" y="772.9482">CodeRepository</text><text fill="#000000" font-family="sans-serif" font-size="12" lengthAdjust="spacingAndGlyphs" textLength="44" x="362" y="795.8887">branch</text><text fill="#000000" font-family="sans-serif" font-size="12" lengthAdjust="spacingAndGlyphs" textLength="31" x="362" y="809.8574">hash</text><text fill="#000000" font-family="sans-serif" font-size="12" lengthAdjust="spacingAndGlyphs" textLength="21" x="362" y="823.8262">tag</text><rect fill="#FEFECE" filter="url(#f1)" height="424" rx="12.5" ry="12.5" style="stroke: #A80036; stroke-width: 1.5;" width="544" x="701" y="1065.9531"/><rect fill="#FFFFFF" height="344.7969" rx="12.5" ry="12.5" style="stroke: #FFFFFF; stroke-width: 1.0;" width="538" x="704" y="1142.1563"/><line style="stroke: #A80036; stroke-width: 1.5;" x1="701" x2="1245" y1="1139.1563" y2="1139.1563"/><line style="stroke: #A80036; stroke-width: 1.5;" x1="701" x2="1245" y1="1092.25" y2="1092.25"/><text fill="#000000" font-family="sans-serif" font-size="14" lengthAdjust="spacingAndGlyphs" textLength="164" x="890.5" y="1082.9482">BuildAutomationSystem</text><text fill="#000000" font-family="sans-serif" font-size="12" lengthAdjust="spacingAndGlyphs" textLength="65" x="706" y="1105.8887">perBranch</text><text fill="#000000" font-family="sans-serif" font-size="12" lengthAdjust="spacingAndGlyphs" textLength="53" x="706" y="1119.8574">perHash</text><text fill="#000000" font-family="sans-serif" font-size="12" lengthAdjust="spacingAndGlyphs" textLength="44" x="706" y="1133.8262">perTag</text><rect fill="#FEFECE" filter="url(#f1)" height="221" rx="12.5" ry="12.5" style="stroke: #A80036; stroke-width: 1.5;" width="535" x="1310" y="1016.9531"/><rect fill="#FFFFFF" height="99.8906" rx="12.5" ry="12.5" style="stroke: #FFFFFF; stroke-width: 1.0;" width="529" x="1313" y="1135.0625"/><line style="stroke: #A80036; stroke-width: 1.5;" x1="1310" x2="1845" y1="1132.0625" y2="1132.0625"/><line style="stroke: #A80036; stroke-width: 1.5;" x1="1310" x2="1845" y1="1043.25" y2="1043.25"/><text fill="#000000" font-family="sans-serif" font-size="14" lengthAdjust="spacingAndGlyphs" textLength="99" x="1505.5" y="1033.9482">DeploySystem</text><text fill="#000000" font-family="sans-serif" font-size="12" lengthAdjust="spacingAndGlyphs" textLength="72" x="1315" y="1056.8887">entireStack</text><text fill="#000000" font-family="sans-serif" font-size="12" lengthAdjust="spacingAndGlyphs" textLength="105" x="1315" y="1070.8574">byProfileOnStack</text><text fill="#000000" font-family="sans-serif" font-size="12" lengthAdjust="spacingAndGlyphs" textLength="93" x="1315" y="1084.8262">byRoleOnStack</text><text fill="#000000" font-family="sans-serif" font-size="12" lengthAdjust="spacingAndGlyphs" textLength="135" x="1315" y="1098.7949">read, updateManifest</text><text fill="#000000" font-family="sans-serif" font-size="12" lengthAdjust="spacingAndGlyphs" textLength="135" x="1315" y="1112.7637">bill of materials (BoM)</text><text fill="#000000" font-family="sans-serif" font-size="12" lengthAdjust="spacingAndGlyphs" textLength="143" x="1315" y="1126.7324">readConfigurationData</text><rect fill="#FEFECE" filter="url(#f1)" height="388" rx="12.5" ry="12.5" style="stroke: #A80036; stroke-width: 1.5;" width="327" x="1604" y="1303.9531"/><rect fill="#FFFFFF" height="322.7656" rx="12.5" ry="12.5" style="stroke: #FFFFFF; stroke-width: 1.0;" width="321" x="1607" y="1366.1875"/><line style="stroke: #A80036; stroke-width: 1.5;" x1="1604" x2="1931" y1="1363.1875" y2="1363.1875"/><line style="stroke: #A80036; stroke-width: 1.5;" x1="1604" x2="1931" y1="1330.25" y2="1330.25"/><text fill="#000000" font-family="sans-serif" font-size="14" lengthAdjust="spacingAndGlyphs" textLength="38" x="1612" y="1320.9482">Stack</text><text fill="#000000" font-family="sans-serif" font-size="12" lengthAdjust="spacingAndGlyphs" textLength="117" x="1609" y="1343.8887">name/environment</text><text fill="#000000" font-family="sans-serif" font-size="12" lengthAdjust="spacingAndGlyphs" textLength="310" x="1609" y="1357.8574">(e.g. Feature, Team, Release, dev/qa/stage/prod)</text><rect fill="#FEFECE" filter="url(#f1)" height="50.2656" rx="12.5" ry="12.5" style="stroke: #A80036; stroke-width: 1.5;" width="137" x="464.75" y="437.9531"/><line style="stroke: #A80036; stroke-width: 1.5;" x1="464.75" x2="601.75" y1="464.25" y2="464.25"/><text fill="#000000" font-family="sans-serif" font-size="14" lengthAdjust="spacingAndGlyphs" textLength="32" x="517.25" y="455.9482">BDD</text><text fill="#000000" font-family="sans-serif" font-size="12" lengthAdjust="spacingAndGlyphs" textLength="117" x="469.75" y="480.3887">featureDescription</text><rect fill="#FEFECE" filter="url(#f1)" height="64.2344" rx="12.5" ry="12.5" style="stroke: #A80036; stroke-width: 1.5;" width="83" x="491.75" y="232.9531"/><line style="stroke: #A80036; stroke-width: 1.5;" x1="491.75" x2="574.75" y1="259.25" y2="259.25"/><text fill="#000000" font-family="sans-serif" font-size="14" lengthAdjust="spacingAndGlyphs" textLength="58" x="504.25" y="250.9482">UnitTest</text><text fill="#000000" font-family="sans-serif" font-size="12" lengthAdjust="spacingAndGlyphs" textLength="63" x="496.75" y="275.3887">testCases</text><text fill="#000000" font-family="sans-serif" font-size="12" lengthAdjust="spacingAndGlyphs" textLength="55" x="496.75" y="289.3574">testData</text><rect fill="#FEFECE" filter="url(#f1)" height="162.0156" rx="12.5" ry="12.5" style="stroke: #A80036; stroke-width: 1.5;" width="137" x="266.75" y="183.9531"/><line style="stroke: #A80036; stroke-width: 1.5;" x1="266.75" x2="403.75" y1="210.25" y2="210.25"/><text fill="#000000" font-family="sans-serif" font-size="14" lengthAdjust="spacingAndGlyphs" textLength="37" x="316.75" y="201.9482">Code</text><text fill="#000000" font-family="sans-serif" font-size="12" lengthAdjust="spacingAndGlyphs" textLength="117" x="271.75" y="226.3887">featureDescription</text><text fill="#000000" font-family="sans-serif" font-size="12" lengthAdjust="spacingAndGlyphs" textLength="63" x="271.75" y="240.3574">testCases</text><text fill="#000000" font-family="sans-serif" font-size="12" lengthAdjust="spacingAndGlyphs" textLength="55" x="271.75" y="254.3262">testData</text><text fill="#000000" font-family="sans-serif" font-size="12" lengthAdjust="spacingAndGlyphs" textLength="76" x="271.75" y="268.2949">functionality</text><text fill="#000000" font-family="sans-serif" font-size="12" lengthAdjust="spacingAndGlyphs" textLength="113" x="271.75" y="282.2637">configurationData</text><text fill="#000000" font-family="sans-serif" font-size="12" lengthAdjust="spacingAndGlyphs" textLength="77" x="271.75" y="296.2324">deployability</text><text fill="#000000" font-family="sans-serif" font-size="12" lengthAdjust="spacingAndGlyphs" textLength="55" x="271.75" y="310.2012">monitors</text><text fill="#000000" font-family="sans-serif" font-size="12" lengthAdjust="spacingAndGlyphs" textLength="46" x="271.75" y="324.1699">metrics</text><text fill="#000000" font-family="sans-serif" font-size="12" lengthAdjust="spacingAndGlyphs" textLength="26" x="271.75" y="338.1387">logs</text><rect fill="#FEFECE" filter="url(#f1)" height="78.2031" rx="12.5" ry="12.5" style="stroke: #A80036; stroke-width: 1.5;" width="263" x="38.75" y="423.9531"/><line style="stroke: #A80036; stroke-width: 1.5;" x1="38.75" x2="301.75" y1="450.25" y2="450.25"/><text fill="#000000" font-family="sans-serif" font-size="14" lengthAdjust="spacingAndGlyphs" textLength="69" x="135.75" y="441.9482">LocalBuild</text><text fill="#000000" font-family="sans-serif" font-size="12" lengthAdjust="spacingAndGlyphs" textLength="74" x="43.75" y="466.3887">localArtifact</text><text fill="#000000" font-family="sans-serif" font-size="12" lengthAdjust="spacingAndGlyphs" textLength="82" x="43.75" y="480.3574">localTestJobs</text><text fill="#000000" font-family="sans-serif" font-size="12" lengthAdjust="spacingAndGlyphs" textLength="243" x="43.75" y="494.3262">localBuildAutomationSystemContainer?</text><rect fill="#FEFECE" filter="url(#f1)" height="50" rx="12.5" ry="12.5" style="stroke: #A80036; stroke-width: 1.5;" width="92" x="337" y="437.9531"/><line style="stroke: #A80036; stroke-width: 1.5;" x1="337" x2="429" y1="464.25" y2="464.25"/><text fill="#000000" font-family="sans-serif" font-size="14" lengthAdjust="spacingAndGlyphs" textLength="72" x="347" y="455.9482">LocalRepo</text><rect fill="#FEFECE" filter="url(#f1)" height="64.2344" rx="12.5" ry="12.5" style="stroke: #A80036; stroke-width: 1.5;" width="154" x="88" y="591.9531"/><line style="stroke: #A80036; stroke-width: 1.5;" x1="88" x2="242" y1="618.25" y2="618.25"/><text fill="#000000" font-family="sans-serif" font-size="14" lengthAdjust="spacingAndGlyphs" textLength="73" x="128.5" y="609.9482">LocalStack</text><text fill="#000000" font-family="sans-serif" font-size="12" lengthAdjust="spacingAndGlyphs" textLength="107" x="93" y="634.3887">LocalDeployTest?</text><text fill="#000000" font-family="sans-serif" font-size="12" lengthAdjust="spacingAndGlyphs" textLength="134" x="93" y="648.3574">LocalIntegrationTest?</text><rect fill="#FEFECE" filter="url(#f1)" height="50.2656" rx="12.5" ry="12.5" style="stroke: #A80036; stroke-width: 1.5;" width="134" x="744" y="846.9531"/><line style="stroke: #A80036; stroke-width: 1.5;" x1="744" x2="878" y1="873.25" y2="873.25"/><text fill="#000000" font-family="sans-serif" font-size="14" lengthAdjust="spacingAndGlyphs" textLength="112" x="755" y="864.9482">preCommitHook</text><text fill="#000000" font-family="sans-serif" font-size="12" lengthAdjust="spacingAndGlyphs" textLength="114" x="749" y="889.3887">see Build,TestJobs</text><rect fill="#FEFECE" filter="url(#f1)" height="50.2656" rx="12.5" ry="12.5" style="stroke: #A80036; stroke-width: 1.5;" width="140" x="569" y="846.9531"/><line style="stroke: #A80036; stroke-width: 1.5;" x1="569" x2="709" y1="873.25" y2="873.25"/><text fill="#000000" font-family="sans-serif" font-size="14" lengthAdjust="spacingAndGlyphs" textLength="120" x="579" y="864.9482">postCommitHook</text><text fill="#000000" font-family="sans-serif" font-size="12" lengthAdjust="spacingAndGlyphs" textLength="114" x="574" y="889.3887">see Build,TestJobs</text><rect fill="#FEFECE" filter="url(#f1)" height="50.2656" rx="12.5" ry="12.5" style="stroke: #A80036; stroke-width: 1.5;" width="134" x="400" y="846.9531"/><line style="stroke: #A80036; stroke-width: 1.5;" x1="400" x2="534" y1="873.25" y2="873.25"/><text fill="#000000" font-family="sans-serif" font-size="14" lengthAdjust="spacingAndGlyphs" textLength="65" x="434.5" y="864.9482">webHook</text><text fill="#000000" font-family="sans-serif" font-size="12" lengthAdjust="spacingAndGlyphs" textLength="114" x="405" y="889.3887">see Build,TestJobs</text><ellipse cx="816" cy="1181.9531" fill="#000000" filter="url(#f1)" rx="10" ry="10" style="stroke: none; stroke-width: 1.0;"/><rect fill="#FEFECE" filter="url(#f1)" height="50.2656" rx="12.5" ry="12.5" style="stroke: #A80036; stroke-width: 1.5;" width="124" x="931.5" y="1156.9531"/><line style="stroke: #A80036; stroke-width: 1.5;" x1="931.5" x2="1055.5" y1="1183.25" y2="1183.25"/><text fill="#000000" font-family="sans-serif" font-size="14" lengthAdjust="spacingAndGlyphs" textLength="104" x="941.5" y="1174.9482">BuildScheduler</text><text fill="#000000" font-family="sans-serif" font-size="12" lengthAdjust="spacingAndGlyphs" textLength="70" x="936.5" y="1199.3887">e.g. Nightly</text><rect fill="#FEFECE" filter="url(#f1)" height="50.2656" rx="12.5" ry="12.5" style="stroke: #A80036; stroke-width: 1.5;" width="94" x="733" y="1401.9531"/><line style="stroke: #A80036; stroke-width: 1.5;" x1="733" x2="827" y1="1428.25" y2="1428.25"/><text fill="#000000" font-family="sans-serif" font-size="14" lengthAdjust="spacingAndGlyphs" textLength="63" x="748.5" y="1419.9482">BuildJobs</text><text fill="#000000" font-family="sans-serif" font-size="12" lengthAdjust="spacingAndGlyphs" textLength="74" x="738" y="1444.3887">localArtifact</text><rect fill="#FEFECE" filter="url(#f1)" height="78.2031" rx="12.5" ry="12.5" style="stroke: #A80036; stroke-width: 1.5;" width="97" x="1124.75" y="1387.9531"/><line style="stroke: #A80036; stroke-width: 1.5;" x1="1124.75" x2="1221.75" y1="1414.25" y2="1414.25"/><text fill="#000000" font-family="sans-serif" font-size="14" lengthAdjust="spacingAndGlyphs" textLength="77" x="1134.75" y="1405.9482">DeployJobs</text><text fill="#000000" font-family="sans-serif" font-size="12" lengthAdjust="spacingAndGlyphs" textLength="45" x="1129.75" y="1430.3887">artifact</text><text fill="#000000" font-family="sans-serif" font-size="12" lengthAdjust="spacingAndGlyphs" textLength="54" x="1129.75" y="1444.3574">manifest</text><text fill="#000000" font-family="sans-serif" font-size="12" lengthAdjust="spacingAndGlyphs" textLength="34" x="1129.75" y="1458.3262">stack</text><rect fill="#FEFECE" filter="url(#f1)" height="64.2344" rx="12.5" ry="12.5" style="stroke: #A80036; stroke-width: 1.5;" width="193" x="896.75" y="1394.9531"/><line style="stroke: #A80036; stroke-width: 1.5;" x1="896.75" x2="1089.75" y1="1421.25" y2="1421.25"/><text fill="#000000" font-family="sans-serif" font-size="14" lengthAdjust="spacingAndGlyphs" textLength="60" x="963.25" y="1412.9482">TestJobs</text><text fill="#000000" font-family="sans-serif" font-size="12" lengthAdjust="spacingAndGlyphs" textLength="84" x="901.75" y="1437.3887">PeriodicTests</text><text fill="#000000" font-family="sans-serif" font-size="12" lengthAdjust="spacingAndGlyphs" textLength="173" x="901.75" y="1451.3574">BasicCodeAcceptanceTests</text><rect fill="#FEFECE" filter="url(#f1)" height="64.2344" rx="12.5" ry="12.5" style="stroke: #A80036; stroke-width: 1.5;" width="134" x="1546" y="1149.9531"/><line style="stroke: #A80036; stroke-width: 1.5;" x1="1546" x2="1680" y1="1176.25" y2="1176.25"/><text fill="#000000" font-family="sans-serif" font-size="14" lengthAdjust="spacingAndGlyphs" textLength="62" x="1582" y="1167.9482">Provision</text><text fill="#000000" font-family="sans-serif" font-size="12" lengthAdjust="spacingAndGlyphs" textLength="114" x="1551" y="1192.3887">profile/role@stack</text><text fill="#000000" font-family="sans-serif" font-size="12" lengthAdjust="spacingAndGlyphs" textLength="86" x="1551" y="1206.3574">applyManifest</text><rect fill="#FEFECE" filter="url(#f1)" height="64.2344" rx="12.5" ry="12.5" style="stroke: #A80036; stroke-width: 1.5;" width="106" x="1715.5" y="1149.9531"/><line style="stroke: #A80036; stroke-width: 1.5;" x1="1715.5" x2="1821.5" y1="1176.25" y2="1176.25"/><text fill="#000000" font-family="sans-serif" font-size="14" lengthAdjust="spacingAndGlyphs" textLength="59" x="1739" y="1167.9482">Upgrade</text><text fill="#000000" font-family="sans-serif" font-size="12" lengthAdjust="spacingAndGlyphs" textLength="71" x="1720.5" y="1192.3887">role@stack</text><text fill="#000000" font-family="sans-serif" font-size="12" lengthAdjust="spacingAndGlyphs" textLength="86" x="1720.5" y="1206.3574">applyManifest</text><rect fill="#FEFECE" filter="url(#f1)" height="64.2344" rx="12.5" ry="12.5" style="stroke: #A80036; stroke-width: 1.5;" width="158" x="1353.5" y="1149.9531"/><line style="stroke: #A80036; stroke-width: 1.5;" x1="1353.5" x2="1511.5" y1="1176.25" y2="1176.25"/><text fill="#000000" font-family="sans-serif" font-size="14" lengthAdjust="spacingAndGlyphs" textLength="47" x="1409" y="1167.9482">Canary</text><text fill="#000000" font-family="sans-serif" font-size="12" lengthAdjust="spacingAndGlyphs" textLength="138" x="1358.5" y="1192.3887">% existing role@stack</text><text fill="#000000" font-family="sans-serif" font-size="12" lengthAdjust="spacingAndGlyphs" textLength="86" x="1358.5" y="1206.3574">applyManifest</text><ellipse cx="1897" cy="1426.9531" fill="#000000" filter="url(#f1)" rx="10" ry="10" style="stroke: none; stroke-width: 1.0;"/><rect fill="#FEFECE" filter="url(#f1)" height="92.1719" rx="12.5" ry="12.5" style="stroke: #A80036; stroke-width: 1.5;" width="71" x="1833.75" y="1575.9531"/><line style="stroke: #A80036; stroke-width: 1.5;" x1="1833.75" x2="1904.75" y1="1602.25" y2="1602.25"/><text fill="#000000" font-family="sans-serif" font-size="14" lengthAdjust="spacingAndGlyphs" textLength="36" x="1851.25" y="1593.9482">node</text><text fill="#000000" font-family="sans-serif" font-size="12" lengthAdjust="spacingAndGlyphs" textLength="51" x="1838.75" y="1618.3887">provider</text><text fill="#000000" font-family="sans-serif" font-size="12" lengthAdjust="spacingAndGlyphs" textLength="39" x="1838.75" y="1632.3574">profile</text><text fill="#000000" font-family="sans-serif" font-size="12" lengthAdjust="spacingAndGlyphs" textLength="24" x="1838.75" y="1646.3262">role</text><text fill="#000000" font-family="sans-serif" font-size="12" lengthAdjust="spacingAndGlyphs" textLength="48" x="1838.75" y="1660.2949">monitor</text><rect fill="#FEFECE" filter="url(#f1)" height="92.1719" rx="12.5" ry="12.5" style="stroke: #A80036; stroke-width: 1.5;" width="168" x="1649.5" y="1380.9531"/><line style="stroke: #A80036; stroke-width: 1.5;" x1="1649.5" x2="1817.5" y1="1407.25" y2="1407.25"/><text fill="#000000" font-family="sans-serif" font-size="14" lengthAdjust="spacingAndGlyphs" textLength="148" x="1659.5" y="1398.9482">ProviderInfrastructure</text><text fill="#000000" font-family="sans-serif" font-size="12" lengthAdjust="spacingAndGlyphs" textLength="86" x="1654.5" y="1423.3887">load balancer</text><text fill="#000000" font-family="sans-serif" font-size="12" lengthAdjust="spacingAndGlyphs" textLength="26" x="1654.5" y="1437.3574">DNS</text><text fill="#000000" font-family="sans-serif" font-size="12" lengthAdjust="spacingAndGlyphs" textLength="48" x="1654.5" y="1451.3262">monitor</text><text fill="#000000" font-family="sans-serif" font-size="12" lengthAdjust="spacingAndGlyphs" textLength="137" x="1654.5" y="1465.2949">scheduler, autoscaler</text><rect fill="#FEFECE" filter="url(#f1)" height="120.1094" rx="12.5" ry="12.5" style="stroke: #A80036; stroke-width: 1.5;" width="168" x="634.5" y="563.9531"/><line style="stroke: #A80036; stroke-width: 1.5;" x1="634.5" x2="802.5" y1="590.25" y2="590.25"/><text fill="#000000" font-family="sans-serif" font-size="14" lengthAdjust="spacingAndGlyphs" textLength="100" x="668.5" y="581.9482">ReviewSystem</text><text fill="#000000" font-family="sans-serif" font-size="12" lengthAdjust="spacingAndGlyphs" textLength="148" x="639.5" y="606.3887">master or all branches?</text><text fill="#000000" font-family="sans-serif" font-size="12" lengthAdjust="spacingAndGlyphs" textLength="71" x="639.5" y="620.3574">+1 BuildJob</text><text fill="#000000" font-family="sans-serif" font-size="12" lengthAdjust="spacingAndGlyphs" textLength="68" x="639.5" y="634.3262">+1 TestJob</text><text fill="#000000" font-family="sans-serif" font-size="12" lengthAdjust="spacingAndGlyphs" textLength="83" x="639.5" y="648.2949">+1 DeployJob</text><text fill="#000000" font-family="sans-serif" font-size="12" lengthAdjust="spacingAndGlyphs" textLength="108" x="639.5" y="662.2637">+1 HumanReview</text><text fill="#000000" font-family="sans-serif" font-size="12" lengthAdjust="spacingAndGlyphs" textLength="125" x="639.5" y="676.2324">+1 PeriodicTestJobs</text><rect fill="#FEFECE" filter="url(#f1)" height="120.1094" rx="12.5" ry="12.5" style="stroke: #A80036; stroke-width: 1.5;" width="184" x="871" y="1561.9531"/><line style="stroke: #A80036; stroke-width: 1.5;" x1="871" x2="1055" y1="1588.25" y2="1588.25"/><text fill="#000000" font-family="sans-serif" font-size="14" lengthAdjust="spacingAndGlyphs" textLength="161" x="882.5" y="1579.9482">TestAutomationSystem</text><text fill="#000000" font-family="sans-serif" font-size="12" lengthAdjust="spacingAndGlyphs" textLength="59" x="876" y="1604.3887">Simulator</text><text fill="#000000" font-family="sans-serif" font-size="12" lengthAdjust="spacingAndGlyphs" textLength="164" x="876" y="1618.3574">FeatureIntegrationTesting</text><text fill="#000000" font-family="sans-serif" font-size="12" lengthAdjust="spacingAndGlyphs" textLength="99" x="876" y="1632.3262">FullSuiteTesting</text><text fill="#000000" font-family="sans-serif" font-size="12" lengthAdjust="spacingAndGlyphs" textLength="76" x="876" y="1646.2949">LoadTesting</text><text fill="#000000" font-family="sans-serif" font-size="12" lengthAdjust="spacingAndGlyphs" textLength="116" x="876" y="1660.2637">RegressionTesting</text><text fill="#000000" font-family="sans-serif" font-size="12" lengthAdjust="spacingAndGlyphs" textLength="77" x="876" y="1674.2324">SoakTesting</text><rect fill="#FEFECE" filter="url(#f1)" height="64.2344" rx="12.5" ry="12.5" style="stroke: #A80036; stroke-width: 1.5;" width="141" x="694.75" y="1589.9531"/><line style="stroke: #A80036; stroke-width: 1.5;" x1="694.75" x2="835.75" y1="1616.25" y2="1616.25"/><text fill="#000000" font-family="sans-serif" font-size="14" lengthAdjust="spacingAndGlyphs" textLength="121" x="704.75" y="1607.9482">ArtifactRepository</text><text fill="#000000" font-family="sans-serif" font-size="12" lengthAdjust="spacingAndGlyphs" textLength="63" x="699.75" y="1632.3887">candidate</text><text fill="#000000" font-family="sans-serif" font-size="12" lengthAdjust="spacingAndGlyphs" textLength="40" x="699.75" y="1646.3574">official</text><rect fill="#FEFECE" filter="url(#f1)" height="78.2031" rx="12.5" ry="12.5" style="stroke: #A80036; stroke-width: 1.5;" width="163" x="1191.75" y="1582.9531"/><line style="stroke: #A80036; stroke-width: 1.5;" x1="1191.75" x2="1354.75" y1="1609.25" y2="1609.25"/><text fill="#000000" font-family="sans-serif" font-size="14" lengthAdjust="spacingAndGlyphs" textLength="143" x="1201.75" y="1600.9482">ConfigurationSystem</text><text fill="#000000" font-family="sans-serif" font-size="12" lengthAdjust="spacingAndGlyphs" textLength="54" x="1196.75" y="1625.3887">manifest</text><text fill="#000000" font-family="sans-serif" font-size="12" lengthAdjust="spacingAndGlyphs" textLength="77" x="1196.75" y="1639.3574">deployability</text><text fill="#000000" font-family="sans-serif" font-size="12" lengthAdjust="spacingAndGlyphs" textLength="113" x="1196.75" y="1653.3262">configurationData</text><rect fill="#FEFECE" filter="url(#f1)" height="50.2656" rx="12.5" ry="12.5" style="stroke: #A80036; stroke-width: 1.5;" width="80" x="1693" y="1747.9531"/><line style="stroke: #A80036; stroke-width: 1.5;" x1="1693" x2="1773" y1="1774.25" y2="1774.25"/><text fill="#000000" font-family="sans-serif" font-size="14" lengthAdjust="spacingAndGlyphs" textLength="60" x="1703" y="1765.9482">Monitors</text><text fill="#000000" font-family="sans-serif" font-size="12" lengthAdjust="spacingAndGlyphs" textLength="22" x="1698" y="1790.3887">SLA</text><rect fill="#FEFECE" filter="url(#f1)" height="50" rx="12.5" ry="12.5" style="stroke: #A80036; stroke-width: 1.5;" width="53" x="1842.75" y="1747.9531"/><line style="stroke: #A80036; stroke-width: 1.5;" x1="1842.75" x2="1895.75" y1="1774.25" y2="1774.25"/><text fill="#000000" font-family="sans-serif" font-size="14" lengthAdjust="spacingAndGlyphs" textLength="33" x="1852.75" y="1765.9482">Logs</text><rect fill="#FEFECE" filter="url(#f1)" height="50.2656" rx="12.5" ry="12.5" style="stroke: #A80036; stroke-width: 1.5;" width="70" x="1965" y="1747.9531"/><line style="stroke: #A80036; stroke-width: 1.5;" x1="1965" x2="2035" y1="1774.25" y2="1774.25"/><text fill="#000000" font-family="sans-serif" font-size="14" lengthAdjust="spacingAndGlyphs" textLength="50" x="1975" y="1765.9482">Metrics</text><text fill="#000000" font-family="sans-serif" font-size="12" lengthAdjust="spacingAndGlyphs" textLength="22" x="1970" y="1790.3887">SLA</text><rect fill="#FEFECE" filter="url(#f1)" height="50.2656" rx="12.5" ry="12.5" style="stroke: #A80036; stroke-width: 1.5;" width="171" x="634.75" y="239.9531"/><line style="stroke: #A80036; stroke-width: 1.5;" x1="634.75" x2="805.75" y1="266.25" y2="266.25"/><text fill="#000000" font-family="sans-serif" font-size="14" lengthAdjust="spacingAndGlyphs" textLength="151" x="644.75" y="257.9482">AuthenticationSystem</text><text fill="#000000" font-family="sans-serif" font-size="12" lengthAdjust="spacingAndGlyphs" textLength="103" x="639.75" y="282.3887">LDAP, SAML, etc.</text><path d="M533,437.8431 C533,403.8831 533,341.7231 533,302.1931 " fill="none" style="stroke: #A80036; stroke-width: 1.0;"/><polygon fill="#A80036" points="533,297.0131,529,306.0131,533,302.0131,537,306.0131,533,297.0131" style="stroke: #A80036; stroke-width: 1.0;"/><path d="M403.418,264.9531 C430.863,264.9531 461.786,264.9531 486.54,264.9531 " fill="none" style="stroke: #A80036; stroke-width: 1.0;"/><polygon fill="#A80036" points="491.725,264.9531,482.725,260.9531,486.725,264.9531,482.725,268.9531,491.725,264.9531" style="stroke: #A80036; stroke-width: 1.0;"/><text fill="#000000" font-family="sans-serif" font-size="13" lengthAdjust="spacingAndGlyphs" textLength="50" x="421.75" y="257.02">OnSave</text><path d="M403.418,333.6831 C438.15,368.0631 478.45,407.9531 504.769,434.0031 " fill="none" style="stroke: #A80036; stroke-width: 1.0;"/><polygon fill="#A80036" points="508.548,437.7531,504.9605,428.5809,504.9925,434.2376,499.3358,434.2696,508.548,437.7531" style="stroke: #A80036; stroke-width: 1.0;"/><path d="M267.65,345.9531 C246.342,371.2631 223.638,398.2331 205.49,419.7931 " fill="none" style="stroke: #A80036; stroke-width: 1.0;"/><polygon fill="#A80036" points="202.156,423.7531,211.0182,419.4565,205.3814,419.9326,204.9053,414.2958,202.156,423.7531" style="stroke: #A80036; stroke-width: 1.0;"/><path d="M354.593,345.9531 C362.112,376.6631 370.229,409.8031 375.853,432.7731 " fill="none" style="stroke: #A80036; stroke-width: 1.0;"/><polygon fill="#A80036" points="377.085,437.8031,378.809,428.1063,375.8854,432.9492,371.0426,430.0256,377.085,437.8031" style="stroke: #A80036; stroke-width: 1.0;"/><text fill="#000000" font-family="sans-serif" font-size="13" lengthAdjust="spacingAndGlyphs" textLength="49" x="368" y="389.02">commit</text><path d="M509.232,297.0131 C480.496,334.5631 432.538,397.2231 404.742,433.5431 " fill="none" style="stroke: #A80036; stroke-width: 1.0;"/><polygon fill="#A80036" points="401.455,437.8431,410.1039,433.1318,404.496,433.8742,403.7536,428.2662,401.455,437.8431" style="stroke: #A80036; stroke-width: 1.0;"/><path d="M168.802,502.0331 C167.996,527.6831 166.939,561.3031 166.144,586.5831 " fill="none" style="stroke: #A80036; stroke-width: 1.0;"/><polygon fill="#A80036" points="165.978,591.8431,170.2588,582.9733,166.1351,586.8456,162.2628,582.7219,165.978,591.8431" style="stroke: #A80036; stroke-width: 1.0;"/><path d="M223.737,502.0231 C257.616,530.8531 295,573.7931 295,622.9531 C295,622.9531 295,622.9531 295,1427.9531 C295,1512.2121 556.747,1578.1961 689.577,1606.2561 " fill="none" style="stroke: #A80036; stroke-width: 1.0;"/><polygon fill="#A80036" points="694.636,1607.3191,686.6514,1601.5532,689.7429,1606.2905,685.0056,1609.3821,694.636,1607.3191" style="stroke: #A80036; stroke-width: 1.0;"/><text fill="#000000" font-family="sans-serif" font-size="13" lengthAdjust="spacingAndGlyphs" textLength="102" x="296" y="958.02">manual process</text><text fill="#000000" font-family="sans-serif" font-size="13" lengthAdjust="spacingAndGlyphs" textLength="67" x="313.5" y="973.1528">Desk Build</text><text fill="#000000" font-family="sans-serif" font-size="13" lengthAdjust="spacingAndGlyphs" textLength="63" x="315.5" y="988.2856">candidate</text><path d="M420.942,488.0631 C429.362,492.9631 438.356,497.8631 447,501.9531 C520.078,536.5231 544.874,529.4831 618,563.9531 C621.866,565.7731 625.778,567.7031 629.701,569.7031 " fill="none" style="stroke: #A80036; stroke-width: 1.0;"/><polygon fill="#A80036" points="634.31,572.0731,628.1467,564.3911,629.8668,569.7801,624.4778,571.5002,634.31,572.0731" style="stroke: #A80036; stroke-width: 1.0;"/><path d="M381.928,488.1931 C379.687,538.8531 374.379,658.8931 370.299,751.1431 " fill="none" style="stroke: #A80036; stroke-width: 1.0;"/><polygon fill="#A80036" points="370.069,756.3431,374.451,747.5228,370.2833,751.3477,366.4584,747.18,370.069,756.3431" style="stroke: #A80036; stroke-width: 1.0;"/><text fill="#000000" font-family="sans-serif" font-size="13" lengthAdjust="spacingAndGlyphs" textLength="31" x="380" y="628.02">push</text><path d="M786.156,897.2591 C763.486,921.2361 731.391,960.1291 717,1000.9531 C710.335,1019.8601 706.505,1040.5831 704.51,1061.0261 " fill="none" style="stroke: #A80036; stroke-width: 1.0;"/><polygon fill="#A80036" points="704.041,1066.2161,708.8323,1057.6113,704.4896,1061.2363,700.8645,1056.8936,704.041,1066.2161" style="stroke: #A80036; stroke-width: 1.0;"/><path d="M644.493,897.1211 C656.579,950.3011 685.565,1077.8391 700.212,1142.2851 " fill="none" style="stroke: #A80036; stroke-width: 1.0;"/><polygon fill="#A80036" points="701.327,1147.1911,703.2321,1137.5283,700.2185,1142.3156,695.4312,1139.3019,701.327,1147.1911" style="stroke: #A80036; stroke-width: 1.0;"/><path d="M801.64,657.8231 C836.804,676.3131 874.11,703.1931 894,739.9531 C935.67,816.9571 942.528,864.0771 894,936.9531 C858.224,990.6781 821.854,974.5021 760,992.9531 C741.372,998.5101 729.754,986.2831 717,1000.9531 C681.026,1042.3331 690.565,1111.4351 700.156,1150.8961 " fill="none" style="stroke: #A80036; stroke-width: 1.0;"/><polygon fill="#A80036" points="701.444,1156.0271,703.133,1146.3242,700.227,1151.1775,695.3736,1148.2714,701.444,1156.0271" style="stroke: #A80036; stroke-width: 1.0;"/><text fill="#000000" font-family="sans-serif" font-size="13" lengthAdjust="spacingAndGlyphs" textLength="63" x="929" y="876.02">candidate</text><path d="M634.344,676.6831 C628.895,679.3131 623.42,681.7631 618,683.9531 C611.803,686.4531 388.506,735.0131 384,739.9531 C380.697,743.5731 377.813,747.4931 375.3,751.6431 " fill="none" style="stroke: #A80036; stroke-width: 1.0;"/><polygon fill="#A80036" points="372.717,756.2431,380.6221,750.3686,375.1731,751.8879,373.6537,746.4389,372.717,756.2431" style="stroke: #A80036; stroke-width: 1.0;"/><text fill="#000000" font-family="sans-serif" font-size="13" lengthAdjust="spacingAndGlyphs" textLength="86" x="488" y="727.02">+N = passed</text><path d="M826.025,1181.9531 C859.355,1181.9531 892.684,1181.9531 926.014,1181.9531 " fill="none" style="stroke: #A80036; stroke-width: 1.0;"/><polygon fill="#A80036" points="931.363,1181.9531,922.363,1177.9531,926.363,1181.9531,922.363,1185.9531,931.363,1181.9531" style="stroke: #A80036; stroke-width: 1.0;"/><path d="M814.676,1191.8901 C809.773,1224.9871 792.51,1341.5131 784.343,1396.6361 " fill="none" style="stroke: #A80036; stroke-width: 1.0;"/><polygon fill="#A80036" points="783.582,1401.7741,788.858,1393.4577,784.3149,1396.8281,780.9444,1392.285,783.582,1401.7741" style="stroke: #A80036; stroke-width: 1.0;"/><text fill="#000000" font-family="sans-serif" font-size="13" lengthAdjust="spacingAndGlyphs" textLength="106" x="805" y="1275.02">ad-hoc (manual)</text><path d="M822.828,1189.7391 C837.751,1204.1351 874.991,1237.7431 913,1253.9531 C993.117,1288.1211 1036.48,1235.4791 1106,1287.9531 C1136.57,1311.0271 1153.94,1351.7251 1163.29,1382.9651 " fill="none" style="stroke: #A80036; stroke-width: 1.0;"/><polygon fill="#A80036" points="1164.72,1387.8931,1166.0454,1378.1339,1163.3226,1383.0924,1158.3641,1380.3696,1164.72,1387.8931" style="stroke: #A80036; stroke-width: 1.0;"/><text fill="#000000" font-family="sans-serif" font-size="13" lengthAdjust="spacingAndGlyphs" textLength="55" x="1095" y="1275.02">promote</text><path d="M827.01,1426.9531 C848.52,1426.9531 870.03,1426.9531 891.539,1426.9531 " fill="none" style="stroke: #A80036; stroke-width: 1.0;"/><polygon fill="#A80036" points="896.713,1426.9531,887.713,1422.9531,891.713,1426.9531,887.713,1430.9531,896.713,1426.9531" style="stroke: #A80036; stroke-width: 1.0;"/><path d="M776.753,1452.0041 C774.538,1469.2251 771.707,1492.9791 770,1513.9531 C768.094,1537.3631 766.852,1563.7171 766.082,1584.4131 " fill="none" style="stroke: #A80036; stroke-width: 1.0;"/><polygon fill="#A80036" points="765.897,1589.5471,770.221,1580.6982,766.0785,1584.5504,762.2263,1580.4079,765.897,1589.5471" style="stroke: #A80036; stroke-width: 1.0;"/><text fill="#000000" font-family="sans-serif" font-size="13" lengthAdjust="spacingAndGlyphs" textLength="65" x="771" y="1527.02">Candidate</text><path d="M1014.24,1459.3141 C1030.68,1481.7781 1055.13,1511.5441 1082,1531.9531 C1113.51,1555.8801 1152.48,1575.4741 1186.99,1590.1261 " fill="none" style="stroke: #A80036; stroke-width: 1.0;"/><polygon fill="#A80036" points="1191.61,1592.0701,1184.8707,1584.8881,1187.0027,1590.1278,1181.763,1592.2598,1191.61,1592.0701" style="stroke: #A80036; stroke-width: 1.0;"/><text fill="#000000" font-family="sans-serif" font-size="13" lengthAdjust="spacingAndGlyphs" textLength="99" x="1083" y="1527.02">updateManifest</text><path d="M956.368,1458.9621 C915.272,1493.7491 848.779,1550.0351 805.985,1586.2601 " fill="none" style="stroke: #A80036; stroke-width: 1.0;"/><polygon fill="#A80036" points="801.919,1589.7011,811.3727,1586.9393,805.7353,1586.4706,806.2039,1580.8332,801.919,1589.7011" style="stroke: #A80036; stroke-width: 1.0;"/><text fill="#000000" font-family="sans-serif" font-size="13" lengthAdjust="spacingAndGlyphs" textLength="42" x="887" y="1527.02">Official</text><path d="M988.18,1458.9621 C984.108,1485.1581 978.141,1523.5471 973.038,1556.3781 " fill="none" style="stroke: #A80036; stroke-width: 1.0;"/><polygon fill="#A80036" points="972.226,1561.5971,977.5593,1553.3173,972.993,1556.6563,969.654,1552.09,972.226,1561.5971" style="stroke: #A80036; stroke-width: 1.0;"/><path d="M1307.57,1200.4301 C1284.3,1239.4221 1227.7,1334.2821 1195.81,1387.7231 " fill="none" style="stroke: #A80036; stroke-width: 1.0;"/><polygon fill="#A80036" points="1310.24,1195.9591,1302.1976,1201.6442,1307.6812,1200.2548,1309.0706,1205.7383,1310.24,1195.9591" style="stroke: #A80036; stroke-width: 1.0;"/><path d="M1177.8,1465.9991 C1181.42,1486.3611 1187.61,1511.4031 1198,1531.9531 C1206.42,1548.6011 1218.52,1564.8161 1230.55,1578.7451 " fill="none" style="stroke: #A80036; stroke-width: 1.0;"/><polygon fill="#A80036" points="1233.94,1582.6121,1231.0121,1573.2085,1230.6428,1578.8533,1224.998,1578.484,1233.94,1582.6121" style="stroke: #A80036; stroke-width: 1.0;"/><text fill="#000000" font-family="sans-serif" font-size="13" lengthAdjust="spacingAndGlyphs" textLength="99" x="1199" y="1527.02">updateManifest</text><path d="M993,1207.1411 C993,1249.9681 993,1339.3451 993,1389.6111 " fill="none" style="stroke: #A80036; stroke-width: 1.0;"/><polygon fill="#A80036" points="993,1394.6481,997,1385.6481,993,1389.6481,989,1385.6481,993,1394.6481" style="stroke: #A80036; stroke-width: 1.0;"/><path d="M983.518,1561.7381 C992.759,1543.5201 1005.607,1525.2971 1023,1513.9531 C1054.04,1493.7081 1073.1,1523.0201 1106,1505.9531 C1121.8,1497.7571 1135.45,1484.1171 1146.23,1470.5151 " fill="none" style="stroke: #A80036; stroke-width: 1.0;"/><polygon fill="#A80036" points="1149.49,1466.3011,1140.8234,1470.9798,1146.4341,1470.2586,1147.1553,1475.8692,1149.49,1466.3011" style="stroke: #A80036; stroke-width: 1.0;"/><path d="M1055.17,1621.9531 C1096.68,1621.9531 1145.42,1621.9531 1186.26,1621.9531 " fill="none" style="stroke: #A80036; stroke-width: 1.0;"/><polygon fill="#A80036" points="1191.71,1621.9531,1182.71,1617.9531,1186.71,1621.9531,1182.71,1625.9531,1191.71,1621.9531" style="stroke: #A80036; stroke-width: 1.0;"/><text fill="#000000" font-family="sans-serif" font-size="13" lengthAdjust="spacingAndGlyphs" textLength="99" x="1073.25" y="1614.02">updateManifest</text><path d="M1773.15,1752.0363 C1793.37,1742.6636 1818.61,1732.6714 1842.5,1727.9531 C1865.61,1723.3898 1872.43,1723.1969 1895.5,1727.9531 C1917.79,1732.5491 1941.19,1742.1254 1960.18,1751.2672 " fill="none" style="stroke: #A80036; stroke-width: 1.0;"/><polygon fill="#A80036" points="1964.91,1753.5787,1958.5865,1746.028,1960.4196,1751.3796,1955.0679,1753.2127,1964.91,1753.5787" style="stroke: #A80036; stroke-width: 1.0;"/><path d="M1773.11,1788.5488 C1794.58,1793.4062 1816.06,1792.6536 1837.53,1786.2912 " fill="none" style="stroke: #A80036; stroke-width: 1.0;"/><polygon fill="#A80036" points="1842.41,1784.7513,1832.6214,1783.6635,1837.6446,1786.2649,1835.0432,1791.2881,1842.41,1784.7513" style="stroke: #A80036; stroke-width: 1.0;"/><path d="M1842.41,1761.1549 C1821.02,1753.9742 1799.64,1752.3564 1778.25,1756.3013 " fill="none" style="stroke: #A80036; stroke-width: 1.0;"/><polygon fill="#A80036" points="1773.11,1757.3574,1782.7283,1759.4761,1778.0089,1756.3572,1781.1279,1751.6378,1773.11,1757.3574" style="stroke: #A80036; stroke-width: 1.0;"/><path d="M1895.35,1772.9531 C1916.8,1772.9531 1938.24,1772.9531 1959.69,1772.9531 " fill="none" style="stroke: #A80036; stroke-width: 1.0;"/><polygon fill="#A80036" points="1964.85,1772.9531,1955.85,1768.9531,1959.85,1772.9531,1955.85,1776.9531,1964.85,1772.9531" style="stroke: #A80036; stroke-width: 1.0;"/><path d="M1320.74,1237.6031 C1323.09,1306.7861 1323.49,1429.3261 1304,1531.9531 C1301.09,1547.2621 1296.06,1563.4971 1290.88,1577.8511 " fill="none" style="stroke: #A80036; stroke-width: 1.0;"/><polygon fill="#A80036" points="1289.12,1582.6431,1295.9732,1575.5696,1290.8409,1577.9486,1288.4619,1572.8163,1289.12,1582.6431" style="stroke: #A80036; stroke-width: 1.0;"/><path d="M1613,1214.2241 C1613,1236.2711 1613,1267.4001 1613,1299.0211 " fill="none" style="stroke: #A80036; stroke-width: 1.0;"/><polygon fill="#A80036" points="1613,1304.0991,1617,1295.0991,1613,1299.0991,1609,1295.0991,1613,1304.0991" style="stroke: #A80036; stroke-width: 1.0;"/><path d="M1741.26,1214.1261 C1728.93,1227.3871 1713.58,1242.4191 1698,1253.9531 C1671.8,1273.3501 1651.85,1261.3501 1633,1287.9531 C1630.42,1291.5891 1628.12,1295.4151 1626.05,1299.3861 " fill="none" style="stroke: #A80036; stroke-width: 1.0;"/><polygon fill="#A80036" points="1623.73,1304.1111,1631.286,1297.7939,1625.9328,1299.6225,1624.1042,1294.2694,1623.73,1304.1111" style="stroke: #A80036; stroke-width: 1.0;"/><path d="M1455.29,1214.2241 C1494.42,1266.7491 1571.93,1370.8161 1601.33,1410.2821 " fill="none" style="stroke: #A80036; stroke-width: 1.0;"/><polygon fill="#A80036" points="1604.34,1414.3331,1602.1762,1404.7249,1601.3551,1410.3218,1595.7582,1409.5007,1604.34,1414.3331" style="stroke: #A80036; stroke-width: 1.0;"/><path d="M1895.69,1437.0031 C1892.28,1460.4681 1882.97,1524.6411 1876.31,1570.5781 " fill="none" style="stroke: #A80036; stroke-width: 1.0;"/><polygon fill="#A80036" points="1875.55,1575.8051,1880.8032,1567.4742,1876.2693,1570.8571,1872.8864,1566.3233,1875.55,1575.8051" style="stroke: #A80036; stroke-width: 1.0;"/><path d="M1886.95,1426.9531 C1865.24,1426.9531 1843.53,1426.9531 1821.82,1426.9531 " fill="none" style="stroke: #A80036; stroke-width: 1.0;"/><polygon fill="#A80036" points="1816.6,1426.9531,1825.6,1430.9531,1821.6,1426.9531,1825.6,1422.9531,1816.6,1426.9531" style="stroke: #A80036; stroke-width: 1.0;"/><path d="M1733,1473.2791 C1733,1544.8261 1733,1681.9951 1733,1742.2852 " fill="none" style="stroke: #A80036; stroke-width: 1.0;"/><polygon fill="#A80036" points="1733,1747.5301,1737,1738.5301,1733,1742.5301,1729,1738.5301,1733,1747.5301" style="stroke: #A80036; stroke-width: 1.0;"/><path d="M1764.89,1473.2031 C1785.61,1502.6181 1812.65,1540.9841 1833.97,1571.2481 " fill="none" style="stroke: #A80036; stroke-width: 1.0;"/><polygon fill="#A80036" points="1837.08,1575.6531,1835.1641,1565.9924,1834.1993,1571.5664,1828.6253,1570.6016,1837.08,1575.6531" style="stroke: #A80036; stroke-width: 1.0;"/><path d="M1833.62,1661.7121 C1810.11,1687.4701 1779.78,1720.6971 1758.6,1743.9103 " fill="none" style="stroke: #A80036; stroke-width: 1.0;"/><polygon fill="#A80036" points="1755.01,1747.8351,1764.028,1743.8758,1758.3772,1744.1389,1758.1141,1738.4882,1755.01,1747.8351" style="stroke: #A80036; stroke-width: 1.0;"/><path d="M1869,1668.0621 C1869,1692.2251 1869,1721.2991 1869,1742.5381 " fill="none" style="stroke: #A80036; stroke-width: 1.0;"/><polygon fill="#A80036" points="1869,1747.7612,1873,1738.7612,1869,1742.7612,1865,1738.7612,1869,1747.7612" style="stroke: #A80036; stroke-width: 1.0;"/><path d="M1904.45,1663.2751 C1926.94,1688.8571 1955.47,1721.3039 1975.47,1744.0578 " fill="none" style="stroke: #A80036; stroke-width: 1.0;"/><polygon fill="#A80036" points="1978.86,1747.9063,1975.9239,1738.5053,1975.5595,1744.1504,1969.9144,1743.7861,1978.86,1747.9063" style="stroke: #A80036; stroke-width: 1.0;"/></g></svg>